mtllib materials.mtl
v 0.165 -0.1749998 -0.165
v 0.165 -0.1749998 0.165
v 0.165 0.1550001 0.165
v 0.165 0.1550001 -0.165
v -0.165 -0.1749998 -0.165
v -0.165 0.1550001 -0.165
v -0.165 0.1550001 0.165
v -0.165 -0.1749998 0.165
v 0.1485001 0.175 0.1485001
v 0.1485 0.175 -0.1485
v -0.1484999 0.175 0.1484998
v -0.1484999 0.175 -0.1484999
vn 1 0 0
vn -1 0 0
vn 0 -1 0
vn 0.7713721 0.6363845 -7.869158E-08
vn 0 0 -1
vn 0 0 1
vn -3.036018E-07 0.6363866 0.7713703
vn -0.7713693 0.6363878 -4.161386E-08
vn -1.455398E-07 0.6363868 -0.7713701
vn 0 1 0
vt 0.1163639 0.04591782
vt 0.1432171 0.02673696
vt 0.162398 0.05359016
vt 0.1355448 0.07277102
vt -0.1163639 0.04591782
vt -0.1355448 0.07277102
vt -0.162398 0.05359016
vt -0.1432171 0.02673696
vt 0.06000242 -0.03417178
vt 0.04890332 -0.06524926
vt 0.0799808 -0.07634836
vt 0.0910799 -0.04527088
vt 0.0543085 -0.1212031
vt 0.03534881 -0.1482129
vt 0.03841891 -0.1483521
vt 0.05548265 -0.1240432
vt -0.09928143 0.03622431
vt -0.1287975 0.05098235
vt -0.1435556 0.02146626
vt -0.1140395 0.006708208
vt 0.09928143 0.03622431
vt 0.1140395 0.006708208
vt 0.1435556 0.02146626
vt 0.1287975 0.05098235
vt 0.04222782 0.01180931
vt 0.05947366 -0.01632574
vt 0.0608219 -0.013564
vt 0.04530064 0.01175755
vt -0.1210144 0.04013911
vt -0.08986156 0.05102485
vt -0.09227448 0.05292821
vt -0.120312 0.04313105
vt -0.15492 -0.02102111
vt -0.149757 0.0115725
vt -0.152576 0.01034847
vt -0.1572227 -0.01898577
vt -0.06100134 -0.03628061
vt -0.08897109 -0.04626979
vt -0.07898187 -0.07423952
vt -0.05101216 -0.06425034
o group153126638
g mesh153126638
usemtl mat16
f 4/4/1 3/3/1 2/2/1 1/1/1
f 8/8/2 7/7/2 6/6/2 5/5/2
f 2/12/3 8/11/3 5/10/3 1/9/3
f 10/16/4 9/15/4 3/14/4 4/13/4
f 5/20/5 6/19/5 4/18/5 1/17/5
f 3/24/6 7/23/6 8/22/6 2/21/6
f 9/28/7 11/27/7 7/26/7 3/25/7
f 11/32/8 12/31/8 6/30/8 7/29/8
f 12/36/9 10/35/9 4/34/9 6/33/9
f 12/40/10 11/39/10 9/38/10 10/37/10
