mtllib materials.mtl
v 0.38 -0.28 -0.2199999
v 0.38 -0.28 0.22
v 0.38 -0.1 0.22
v 0.38 -0.1 -0.2199999
v -0.38 -0.28 -0.2199999
v -0.38 -0.1 -0.2199999
v -0.38 -0.1 0.22
v -0.38 -0.28 0.22
v 0.3077998 0.04000008 0.1782
v 0.3077998 0.04000008 -0.1781999
v -0.3078002 0.04000008 0.1782001
v -0.3078 0.04000008 -0.1781999
v 0.3077997 0.12 0.1782
v 0.3077997 0.12 0.0891
v 0.3077997 0.12 0.04454994
v 0.3077997 0.12 0
v 0.3077997 0.12 -0.04454994
v 0.3077997 0.12 -0.0891
v 0.3077997 0.12 -0.1782
v -0.3078003 0.12 0.1782001
v -0.3078001 0.12 -0.1782
v -0.3078001 0.12 -0.0891
v -0.3078001 0.12 -0.04454994
v -0.3078002 0.12 0
v -0.3078002 0.12 0.04455006
v -0.3078002 0.12 0.08910012
v 0.3077998 0.2599999 0.04455042
v 0.3077998 0.2599999 4.768372E-07
v 0.3077998 0.26 1.192093E-07
v 0.3077997 0.26 -0.04454982
v -0.3078002 0.26 0
v -0.3078001 0.26 -0.04454982
v 0.224386 0.28 -0.006036401
v 0.2243859 0.28 -0.0385133
v -0.3078002 0.2599999 0.04455054
v -0.3078002 0.2599999 4.768372E-07
v 0.2243859 0.2799999 0.0385139
v 0.2243859 0.2799999 0.006036997
v -0.2243864 0.2799999 0.03851402
v -0.2243865 0.2799999 0.006036997
v -0.2243863 0.28 -0.00603652
v -0.2243864 0.28 -0.0385133
vn 1 0 0
vn -1 0 0
vn 0 -1 0
vn 0.8887706 0.4583523 -5.795592E-09
vn 0 0 -1
vn 0 0 1
vn 8.448135E-08 0.2860914 0.9582024
vn -0.8887713 0.4583509 -2.353318E-07
vn -9.183945E-09 0.2860913 -0.9582024
vn 1 1.411143E-06 0
vn 1.930979E-07 2.16418E-13 1
vn -1 -9.170611E-07 -5.853429E-07
vn 8.597856E-09 -7.450588E-07 -1
vn 0 1 0
vn 1 -4.192519E-07 0
vn 0 1 0
vn 0 1 0
vn 0 1 0
vn 1 -3.265676E-07 -6.689643E-07
vn -1.043621E-07 -4.257475E-07 1
vn -1 -9.16662E-09 -6.689653E-07
vn 7.543954E-09 8.51495E-07 -1
vn 0.2331598 0.9724385 -5.87421E-07
vn 1.980684E-07 -3.405983E-06 1
vn -1 -3.159231E-07 -6.689626E-07
vn 1.061627E-08 3.405983E-06 -1
vn 0.2331597 0.9724385 6.746662E-08
vn 2.24813E-07 0.2889516 0.9573437
vn -0.2331599 0.9724384 5.657263E-08
vn 7.122067E-09 0.2889515 -0.9573438
vn 0 1 0
vn -2.160037E-07 0.2889516 0.9573438
vn -0.2331598 0.9724385 2.359877E-08
vn 6.08418E-09 0.2889515 -0.9573438
vn 0 1 0
vt 0.1278724 0.0241795
vt 0.1636767 -0.001394978
vt 0.174139 0.01325222
vt 0.1383347 0.0388267
vt -0.1278724 0.0241795
vt -0.1383347 0.0388267
vt -0.174139 0.01325222
vt -0.1636767 -0.001394978
vt 0.1204084 0.06955437
vt 0.09484686 -0.002018022
vt 0.1362835 -0.01681682
vt 0.1618451 0.05475556
vt 0.04740106 -0.09192253
vt 0.04568164 -0.1358889
vt 0.06158507 -0.1323277
vt 0.06297779 -0.09671488
vt -0.03667151 0.1368474
vt -0.0527712 0.1448972
vt -0.08675943 0.07692073
vt -0.07065975 0.06887089
vt 0.03667151 0.1368474
vt 0.07065975 0.06887089
vt 0.08675943 0.07692073
vt 0.0527712 0.1448972
vt 0.006369238 0.1263092
vt 0.04456256 0.06060322
vt 0.05356592 0.07418778
vt 0.02262932 0.1274096
vt -0.1662811 0.05605229
vt -0.1253667 0.07223897
vt -0.1350485 0.0853487
vt -0.1681892 0.07223748
vt -0.1139343 0.07500511
vt -0.08712889 0.146121
vt -0.1033472 0.1445182
vt -0.1250595 0.08691435
vt 0.1498734 0.04778909
vt 0.1788748 0.02707373
vt 0.1835248 0.03358358
vt 0.1762744 0.03876242
vt 0.1726492 0.04135185
vt 0.169024 0.04394127
vt 0.1653989 0.04653069
vt 0.1617737 0.04912011
vt 0.1545233 0.05429895
vt 0.0685221 0.1447004
vt 0.09605256 0.08963944
vt 0.103208 0.09321715
vt 0.07567751 0.1482781
vt -0.1788749 0.02707377
vt -0.1498735 0.04778915
vt -0.1545234 0.054299
vt -0.1617737 0.04912016
vt -0.1653989 0.04653073
vt -0.1690241 0.04394131
vt -0.1726493 0.04135189
vt -0.1762744 0.03876246
vt -0.1835248 0.03358362
vt -0.09605246 0.08963948
vt -0.06852198 0.1447004
vt -0.0756774 0.1482781
vt -0.1032079 0.09321718
vt -0.1219165 0.06134908
vt -0.1303075 0.05835232
vt -0.1096026 0.0003787035
vt -0.1012117 0.003375464
vt 0.1690241 0.0439417
vt 0.1726492 0.04135229
vt 0.1807866 0.05274453
vt 0.1771614 0.05533393
vt -0.1303075 0.05835232
vt -0.1345029 0.05685394
vt -0.1137981 -0.00111968
vt -0.1096026 0.0003787035
vt -0.1470893 0.05235881
vt -0.1554802 0.04936205
vt -0.1347754 -0.00861159
vt -0.1263845 -0.005614827
vt -0.1428938 0.05385718
vt -0.1470893 0.05235881
vt -0.1263845 -0.005614827
vt -0.122189 -0.004116443
vt 0.1653989 0.0465312
vt 0.1690241 0.04394179
vt 0.1771614 0.05533405
vt 0.1735362 0.05792347
vt 0.07567754 0.1482781
vt 0.103208 0.0932172
vt 0.11573 0.09947819
vt 0.08819953 0.1545391
vt -0.1690241 0.04394147
vt -0.1653989 0.04653088
vt -0.1735362 0.05792314
vt -0.1771614 0.05533373
vt -0.1032081 0.0932172
vt -0.07567762 0.1482781
vt -0.0881996 0.1545391
vt -0.11573 0.09947819
vt -0.1229536 0.01538625
vt -0.127065 0.01367061
vt -0.1232045 0.005986867
vt -0.1202073 0.007237563
vt 0.07567801 0.1482782
vt 0.1032084 0.09321723
vt 0.1157304 0.0994782
vt 0.08819997 0.1545392
vt -0.1726493 0.04135199
vt -0.1690241 0.04394142
vt -0.1771615 0.05533363
vt -0.1807866 0.05274421
vt -0.1032084 0.09321725
vt -0.07567798 0.1482782
vt -0.08819995 0.1545392
vt -0.1157304 0.09947822
vt -0.1270649 0.0136706
vt -0.1311763 0.01195495
vt -0.1273159 0.004271206
vt -0.1243187 0.005521915
vt 0.04370049 0.139713
vt 0.07466064 0.08650492
vt 0.07227121 0.09476529
vt 0.04970128 0.133554
vt -0.1326884 0.03089164
vt -0.1284553 0.03227991
vt -0.1317019 0.04024247
vt -0.1347879 0.03923043
vt -0.1498588 0.09602538
vt -0.1282196 0.1536568
vt -0.1331075 0.1465821
vt -0.1488825 0.1045688
vt -0.1364614 0.04729709
vt -0.1395199 0.04620478
vt -0.1244261 0.003941996
vt -0.1213676 0.005034314
vt 0.04481312 0.1403605
vt 0.07577326 0.08715241
vt 0.07338384 0.09541278
vt 0.05081389 0.1342015
vt -0.1284552 0.03227992
vt -0.1242221 0.03366818
vt -0.1274687 0.04163075
vt -0.1305546 0.04061871
vt -0.1486537 0.0955729
vt -0.1270145 0.1532043
vt -0.1319024 0.1461296
vt -0.1476773 0.1041163
vt -0.1322659 0.04879547
vt -0.1353244 0.04770317
vt -0.1202305 0.005440402
vt -0.1171721 0.006532711
o group1831705973
g mesh1831705973
usemtl mat14
f 4/4/1 3/3/1 2/2/1 1/1/1
f 8/8/2 7/7/2 6/6/2 5/5/2
f 2/12/3 8/11/3 5/10/3 1/9/3
f 10/16/4 9/15/4 3/14/4 4/13/4
f 5/20/5 6/19/5 4/18/5 1/17/5
f 3/24/6 7/23/6 8/22/6 2/21/6
f 9/28/7 11/27/7 7/26/7 3/25/7
f 11/32/8 12/31/8 6/30/8 7/29/8
f 12/36/9 10/35/9 4/34/9 6/33/9
f 19/45/10 18/44/10 17/43/10 16/42/10 15/41/10 14/40/10 13/39/10 9/38/10 10/37/10
f 13/49/11 20/48/11 11/47/11 9/46/11
f 20/58/12 26/57/12 25/56/12 24/55/12 23/54/12 22/53/12 21/52/12 12/51/12 11/50/12
f 21/62/13 19/61/13 10/60/13 12/59/13
f 21/66/14 22/65/14 18/64/14 19/63/14
f 28/70/15 27/69/15 15/68/15 16/67/15
f 22/74/16 23/73/16 17/72/16 18/71/16
f 26/78/17 20/77/17 13/76/17 14/75/17
f 25/82/18 26/81/18 14/80/18 15/79/18
f 30/86/19 29/85/19 16/84/19 17/83/19
f 29/90/20 31/89/20 24/88/20 16/87/20
f 31/94/21 32/93/21 23/92/21 24/91/21
f 32/98/22 30/97/22 17/96/22 23/95/22
f 34/102/23 33/101/23 29/100/23 30/99/23
f 27/106/24 35/105/24 25/104/24 15/103/24
f 35/110/25 36/109/25 24/108/25 25/107/25
f 36/114/26 28/113/26 16/112/26 24/111/26
f 38/118/27 37/117/27 27/116/27 28/115/27
f 37/122/28 39/121/28 35/120/28 27/119/28
f 39/126/29 40/125/29 36/124/29 35/123/29
f 40/130/30 38/129/30 28/128/30 36/127/30
f 40/134/31 39/133/31 37/132/31 38/131/31
f 33/138/32 41/137/32 31/136/32 29/135/32
f 41/142/33 42/141/33 32/140/33 31/139/33
f 42/146/34 34/145/34 30/144/34 32/143/34
f 42/150/35 41/149/35 33/148/35 34/147/35
