mtllib materials.mtl
v 0 -0.00999999 0.18
v 0.08999999 -0.00999999 0.1558846
v 0.08999999 -0.06 0.1558846
v 0 -0.06 0.18
v 0.1558846 -0.00999999 0.08999997
v 0.1558846 -0.06 0.08999997
v 0.18 -0.00999999 0
v 0.18 -0.06 0
v 0.1558846 -0.00999999 -0.08999997
v 0.1558846 -0.06 -0.08999997
v 0.08999999 -0.00999999 -0.1558846
v 0.08999999 -0.06 -0.1558846
v -1.490116E-08 -0.00999999 -0.18
v -1.490116E-08 -0.06 -0.18
v -0.09000003 -0.00999999 -0.1558846
v -0.09000003 -0.06 -0.1558846
v -0.1558846 -0.00999999 -0.08999997
v -0.1558846 -0.06 -0.08999997
v -0.18 -0.00999999 0
v -0.18 -0.06 0
v -0.1558846 -0.00999999 0.08999997
v -0.1558846 -0.06 0.08999997
v -0.08999995 -0.00999999 0.1558846
v -0.08999995 -0.06 0.1558846
v -0.1402961 5.960464E-08 0.08100003
v -0.08099996 5.960464E-08 0.1402962
v -0.162 5.960464E-08 0
v -0.1402961 5.960464E-08 -0.08099997
v -0.08100002 5.960464E-08 -0.1402961
v -1.490116E-08 5.960464E-08 -0.162
v 0.08099999 5.960464E-08 -0.1402961
v 0.1402961 5.960464E-08 -0.08099997
v 0.162 5.960464E-08 0
v 0.1402961 5.960464E-08 0.08100003
v 0.08099999 5.960464E-08 0.1402962
v 0 5.960464E-08 0.162
v -0.1543257 0.01000011 0.08909994
v -0.08909996 0.01000011 0.1543258
v -0.1782 0.01000011 0
v -0.1543257 0.01000011 -0.08909994
v -0.08910002 0.01000011 -0.1543257
v -1.490116E-08 0.01000011 -0.1782
v 0.08910002 0.01000011 -0.1543257
v 0.1543258 0.01000011 -0.08909994
v 0.1782 0.01000011 0
v 0.1543258 0.01000011 0.08909994
v 0.08910002 0.01000011 0.1543258
v 0 0.01000011 0.1782001
v -0.1543257 0.0200001 0.08909994
v -0.08909996 0.0200001 0.1543258
v -0.1782 0.0200001 0
v -0.1543257 0.0200001 -0.08909994
v -0.08910001 0.0200001 -0.1543257
v -1.490116E-08 0.0200001 -0.1782
v 0.08910002 0.0200001 -0.1543257
v 0.1543258 0.0200001 -0.08909994
v 0.1782001 0.0200001 0
v 0.1543258 0.0200001 0.08909994
v 0.08910002 0.0200001 0.1543258
v 0 0.0200001 0.1782001
v -0.1388931 0.03000015 0.08019
v -0.08018996 0.03000015 0.1388932
v -0.16038 0.03000015 0
v -0.1388931 0.03000015 -0.08018994
v -0.08019 0.03000015 -0.1388931
v -1.490116E-08 0.03000015 -0.16038
v 0.08019002 0.03000015 -0.1388931
v 0.1388932 0.03000015 -0.08018994
v 0.1603801 0.03000015 0
v 0.1388932 0.03000015 0.08019
v 0.08019002 0.03000015 0.1388932
v 0 0.03000015 0.1603801
v -0.1527825 0.04000014 0.08820909
v -0.08820897 0.04000014 0.1527825
v -0.176418 0.04000014 5.960464E-08
v -0.1527825 0.04000014 -0.08820891
v -0.088209 0.04000014 -0.1527823
v -2.980232E-08 0.04000014 -0.176418
v 0.08820899 0.04000014 -0.1527823
v 0.1527825 0.04000014 -0.08820885
v 0.176418 0.04000014 5.960464E-08
v 0.1527825 0.04000014 0.08820897
v 0.08820899 0.04000014 0.1527826
v -1.490116E-08 0.04000014 0.1764181
v -0.1527825 0.05000013 0.08820909
v -0.08820897 0.05000013 0.1527825
v -0.176418 0.05000013 1.192093E-07
v -0.1527825 0.05000013 -0.08820891
v -0.088209 0.05000013 -0.1527823
v -4.470348E-08 0.05000013 -0.176418
v 0.08820896 0.05000013 -0.1527823
v 0.1527825 0.05000013 -0.08820879
v 0.176418 0.05000013 1.192093E-07
v 0.1527825 0.05000013 0.08820897
v 0.08820896 0.05000013 0.1527826
v -2.980232E-08 0.05000013 0.1764181
v -0.1375042 0.06000006 0.0793882
v -0.07938804 0.06000006 0.1375043
v -0.1587761 0.06000006 1.192093E-07
v -0.1375042 0.06000006 -0.07938802
v -0.07938809 0.06000006 -0.137504
v -1.490116E-08 0.06000006 -0.1587762
v 0.0793881 0.06000006 -0.1375041
v 0.1375043 0.06000006 -0.07938796
v 0.1587762 0.06000006 1.192093E-07
v 0.1375043 0.06000006 0.07938802
v 0.07938813 0.06000006 0.1375043
v 1.490116E-08 0.06000006 0.1587763
v -0.1237538 0.05000007 0.07144952
v -0.07144924 0.05000007 0.1237538
v -0.1428985 0.05000007 1.788139E-07
v -0.1237538 0.05000007 -0.0714491
v -0.0714493 0.05000007 -0.1237535
v -2.980232E-08 0.05000007 -0.1428984
v 0.07144926 0.05000007 -0.1237536
v 0.1237538 0.05000007 -0.0714491
v 0.1428986 0.05000007 2.384186E-07
v 0.1237539 0.05000007 0.07144928
v 0.07144929 0.05000007 0.123754
v 0 0.05000007 0.1428987
vn 0.2588191 5.990854E-08 0.9659258
vn 0.7071068 -2.802263E-08 0.7071068
vn 0.9659259 -1.081249E-07 0.258819
vn 0.9659259 -1.403425E-08 -0.258819
vn 0.707107 1.695483E-07 -0.7071066
vn 0.2588192 -2.980057E-07 -0.9659258
vn -0.2588191 -3.20409E-07 -0.9659258
vn -0.7071071 9.241427E-08 -0.7071065
vn -0.9659259 2.789975E-07 -0.258819
vn -0.9659259 2.615939E-07 0.258819
vn -0.7071066 2.052854E-07 0.7071071
vn -0.2588194 -3.094308E-07 0.9659258
vn -0.3525448 0.8668473 0.3525449
vn 0 -1 0
vn -0.4815846 0.8668477 0.1290401
vn -0.4815845 0.8668478 -0.1290401
vn -0.3525443 0.8668477 -0.3525445
vn -0.1290402 0.8668479 -0.4815842
vn 0.1290403 0.866848 -0.4815841
vn 0.3525443 0.8668477 -0.3525444
vn 0.4815848 0.8668476 -0.1290401
vn 0.4815848 0.8668476 0.1290402
vn 0.352545 0.8668472 0.3525452
vn 0.1290403 0.8668475 0.4815849
vn -0.1290403 0.8668475 0.4815848
vn -0.3807727 -0.8426294 0.3807727
vn -0.5201448 -0.8426296 0.1393725
vn -0.5201445 -0.8426299 -0.1393724
vn -0.3807728 -0.8426295 -0.3807725
vn -0.1393726 -0.8426295 -0.5201451
vn 0.1393726 -0.8426296 -0.520145
vn 0.3807724 -0.8426297 -0.3807723
vn 0.5201441 -0.8426302 -0.139372
vn 0.5201443 -0.8426301 0.139372
vn 0.3807725 -0.8426297 0.3807721
vn 0.1393719 -0.8426304 0.5201436
vn -0.139372 -0.8426305 0.5201435
vn -0.7071073 -4.902091E-07 0.7071064
vn -0.9659258 -4.567997E-07 0.2588191
vn -0.9659258 -4.567997E-07 -0.2588191
vn -0.7071069 2.699723E-07 -0.7071068
vn -0.2588197 1.443255E-07 -0.9659257
vn 0.2588198 5.496435E-08 -0.9659256
vn 0.7071066 4.453264E-07 -0.707107
vn 0.9659259 -1.455937E-06 -0.258819
vn 0.9659258 -1.455937E-06 0.2588191
vn 0.7071072 -1.395079E-07 0.7071064
vn 0.2588191 -3.569542E-08 0.9659258
vn -0.2588192 -2.158365E-08 0.9659258
vn -0.3552105 0.8646684 0.3552101
vn -0.4852262 0.8646684 0.130016
vn -0.485226 0.8646685 -0.130016
vn -0.3552099 0.8646687 -0.3552099
vn -0.1300163 0.8646687 -0.4852256
vn 0.1300162 0.8646687 -0.4852255
vn 0.3552098 0.8646686 -0.3552102
vn 0.4852262 0.8646684 -0.1300161
vn 0.4852262 0.8646684 0.1300161
vn 0.3552106 0.8646683 0.3552103
vn 0.130016 0.8646687 0.4852256
vn -0.1300161 0.8646687 0.4852256
vn -0.3834887 -0.8401622 0.383489
vn -0.5238557 -0.8401622 0.1403666
vn -0.5238568 -0.8401614 -0.1403671
vn -0.38349 -0.8401611 -0.3834902
vn -0.1403679 -0.8401613 -0.5238568
vn 0.1403677 -0.840161 -0.5238574
vn 0.3834905 -0.8401607 -0.3834908
vn 0.5238574 -0.8401611 -0.1403671
vn 0.5238565 -0.8401616 0.140367
vn 0.3834894 -0.8401619 0.383489
vn 0.1403663 -0.8401629 0.5238546
vn -0.1403672 -0.8401621 0.5238557
vn -0.7071062 -1.093254E-07 0.7071074
vn -0.9659259 -2.490755E-07 0.2588188
vn -0.9659259 1.241938E-06 -0.258819
vn -0.7071065 -1.262418E-07 -0.7071071
vn -0.2588208 -1.327809E-07 -0.9659254
vn 0.2588207 5.829103E-07 -0.9659254
vn 0.7071066 4.558011E-06 -0.7071071
vn 0.9659258 4.182119E-06 -0.2588191
vn 0.9659259 7.252719E-07 0.258819
vn 0.7071072 1.032807E-06 0.7071064
vn 0.2588188 6.12457E-07 0.9659259
vn -0.2588202 -2.450198E-07 0.9659255
vn -0.3578788 0.8624646 0.3578792
vn -0.4888717 0.8624647 0.1309927
vn -0.4888717 0.8624647 -0.1309927
vn -0.3578787 0.8624648 -0.3578791
vn -0.1309935 0.862465 -0.4888711
vn 0.1309935 0.8624644 -0.4888721
vn 0.3578801 0.8624636 -0.3578804
vn 0.4888735 0.8624637 -0.1309931
vn 0.4888732 0.8624639 0.130993
vn 0.3578794 0.8624645 0.3578789
vn 0.1309929 0.8624647 0.4888717
vn -0.1309935 0.8624642 0.4888724
vn 0.3862121 0.8376632 -0.3862132
vn 0.5275762 0.8376633 -0.1413634
vn 0.5275749 0.8376642 0.1413631
vn 0.3862107 0.8376648 0.3862112
vn 0.1413636 0.8376655 0.5275726
vn -0.1413632 0.8376657 0.5275725
vn -0.3862102 0.8376653 0.3862106
vn -0.5275733 0.8376652 0.1413625
vn -0.5275748 0.8376642 -0.1413631
vn -0.3862128 0.8376633 -0.3862123
vn -0.1413639 0.8376633 -0.527576
vn 0.1413641 0.8376641 -0.5275748
vn 0 1 0
vt 0.06260169 0.01731677
vt 0.05862164 0.02574142
vt 0.05410076 0.02360563
vt 0.0580808 0.01518098
vt 0.08308885 -0.02096409
vt 0.07878353 -0.01270093
vt 0.07434931 -0.01501128
vt 0.07865463 -0.02327444
vt 0.1059712 -0.02762464
vt 0.1000285 -0.02044831
vt 0.0961775 -0.02363732
vt 0.1021202 -0.03081365
vt 0.1076244 0.04639847
vt 0.09844226 0.04798064
vt 0.09759323 0.04305325
vt 0.1067754 0.04147109
vt 0.01794737 0.1028121
vt 0.01105314 0.09654431
vt 0.0144166 0.0928447
vt 0.02131083 0.0991125
vt -0.03276293 0.07159212
vt -0.03739172 0.06350572
vt -0.03305235 0.06102179
vt -0.02842356 0.0691082
vt -0.05862163 0.02574142
vt -0.06260167 0.01731677
vt -0.05808078 0.01518097
vt -0.05410074 0.02360563
vt -0.07878356 -0.01270095
vt -0.08308887 -0.02096411
vt -0.07865465 -0.02327445
vt -0.07434933 -0.0150113
vt -0.1000285 -0.0204483
vt -0.1059712 -0.02762463
vt -0.1021202 -0.03081364
vt -0.09617752 -0.02363731
vt -0.09844225 0.04798066
vt -0.1076244 0.04639848
vt -0.1067754 0.0414711
vt -0.09759321 0.04305327
vt -0.0110531 0.09654428
vt -0.01794733 0.1028121
vt -0.02131079 0.09911247
vt -0.01441656 0.09284467
vt 0.03739177 0.06350575
vt 0.03276298 0.07159215
vt 0.02842361 0.06910823
vt 0.0330524 0.06102183
vt -0.08705093 0.005660543
vt -0.07846174 0.002049234
vt -0.07811382 0.004078753
vt -0.08584408 0.007328931
vt 0.1096457 -0.02004565
vt 0.1104016 -0.01075888
vt 0.106413 -0.002338318
vt 0.09874837 0.002959759
vt 0.08946161 0.003715736
vt 0.08104104 -0.0002729537
vt 0.07574296 -0.007937541
vt 0.07498698 -0.01722431
vt 0.07897567 -0.02564487
vt 0.08664026 -0.03094295
vt 0.09592702 -0.03169893
vt 0.1043476 -0.02771023
vt -0.09874587 0.004006841
vt -0.08945368 0.004693005
vt -0.090066 0.006658985
vt -0.09842896 0.006041436
vt -0.1032378 -0.0006532109
vt -0.09524781 0.004140073
vt -0.09667914 0.00562038
vt -0.1038701 0.001306425
vt -0.101721 -0.0004127781
vt -0.09653272 0.007326542
vt -0.09845816 0.008056439
vt -0.1031276 0.001091051
vt -0.09840639 0.005001381
vt -0.09688974 0.0141946
vt -0.09894456 0.01406143
vt -0.1003096 0.005787526
vt -0.09665043 0.007966286
vt -0.09944021 0.01685632
vt -0.1012144 0.01581127
vt -0.09870364 0.007810243
vt -0.09591065 -0.004052418
vt -0.1032566 0.001679362
vt -0.1041231 -0.0001885451
vt -0.09751181 -0.00534715
vt -0.08527003 -0.03358695
vt -0.09451102 -0.03477853
vt -0.09379245 -0.03670821
vt -0.08547558 -0.03563579
vt -0.06565098 -0.04872435
vt -0.07164884 -0.05585465
vt -0.06981404 -0.05678927
vt -0.06441597 -0.05037199
vt -0.05713161 -0.03958856
vt -0.05852135 -0.04880182
vt -0.05646857 -0.04864032
vt -0.0552178 -0.04034838
vt -0.06090384 -0.02048978
vt -0.05817662 -0.02939921
vt -0.05639509 -0.02836666
vt -0.05884958 -0.02034818
vt -0.07244496 -0.002860679
vt -0.06627153 -0.009839519
vt -0.0650779 -0.008161652
vt -0.07063399 -0.001880693
vt 0.1221503 -0.0177353
vt 0.115738 -0.02313933
vt 0.1166141 -0.02482954
vt 0.1236677 -0.01888511
vt 0.08944663 -0.06649029
vt 0.08114006 -0.06534077
vt 0.08047016 -0.0671228
vt 0.08960738 -0.06838728
vt 0.04340813 -0.07817729
vt 0.03827921 -0.07154293
vt 0.03655357 -0.07234702
vt 0.04219538 -0.07964481
vt 0.02388778 -0.05408232
vt 0.02290039 -0.04575491
vt 0.0210069 -0.0455572
vt 0.02209303 -0.05471734
vt 0.02587293 -0.01951445
vt 0.02845035 -0.01153463
vt 0.02681207 -0.01056487
vt 0.02397691 -0.01934267
vt 0.04161402 0.01249014
vt 0.04719155 0.01875207
vt 0.0460837 0.02030033
vt 0.03994843 0.0134122
vt 0.06621402 0.03236983
vt 0.07394075 0.03562841
vt 0.07360546 0.03750245
vt 0.06510607 0.03391801
vt 0.09225142 0.03604607
vt 0.1006142 0.03542552
vt 0.1011697 0.03724645
vt 0.0919707 0.03792905
vt 0.1112776 0.02987039
vt 0.1184663 0.02555267
vt 0.1197819 0.02692875
vt 0.1118743 0.03167824
vt 0.1211158 0.02412427
vt 0.1258298 0.01718894
vt 0.1276014 0.01788611
vt 0.1224159 0.02551497
vt 0.1252643 0.02100483
vt 0.1267962 0.0127602
vt 0.1286986 0.01268722
vt 0.1270135 0.02175631
vt 0.1269045 0.01226689
vt 0.1246869 0.004179711
vt 0.1263669 0.003284244
vt 0.1288064 0.01218014
vt -0.01656753 0.1042607
vt -0.009742242 0.09805555
vt -0.009069551 0.09879547
vt -0.01589484 0.1050006
vt -0.1079181 0.04837736
vt -0.09882778 0.04994372
vt -0.09899759 0.05092919
vt -0.1080879 0.04936284
vt -0.1074819 -0.02631321
vt -0.1015986 -0.01920865
vt -0.1023688 -0.01857085
vt -0.1082521 -0.02567541
vt -0.08484104 -0.01999862
vt -0.08057877 -0.0118181
vt -0.08146562 -0.01135603
vt -0.08572789 -0.01953655
vt -0.06439018 0.01821319
vt -0.06044994 0.0265536
vt -0.06135411 0.02698075
vt -0.06529436 0.01864034
vt -0.03910434 0.06453977
vt -0.03452183 0.0725453
vt -0.03538971 0.07304209
vt -0.03997221 0.06503655
vt 0.009742131 0.09805551
vt 0.01656741 0.1042606
vt 0.01589471 0.1050006
vt 0.009069439 0.09879543
vt 0.09882776 0.04994377
vt 0.1079181 0.04837743
vt 0.1080879 0.04936291
vt 0.09899756 0.05092925
vt 0.1015987 -0.01920842
vt 0.107482 -0.02631298
vt 0.1082522 -0.02567517
vt 0.1023689 -0.01857062
vt 0.08057879 -0.01181813
vt 0.08484107 -0.01999866
vt 0.08572791 -0.0195366
vt 0.08146564 -0.01135606
vt 0.06044991 0.02655363
vt 0.06439016 0.01821322
vt 0.06529433 0.01864038
vt 0.06135409 0.02698079
vt 0.03452186 0.07254528
vt 0.03910435 0.06453974
vt 0.03997223 0.06503652
vt 0.03538973 0.07304206
vt -0.08621275 0.00753862
vt -0.0777097 0.003962848
vt -0.07736318 0.005976663
vt -0.08501592 0.009194859
vt -0.09884319 0.005952904
vt -0.08964396 0.006632449
vt -0.09025057 0.008583745
vt -0.09852989 0.007972153
vt -0.1041479 0.0009535457
vt -0.09623785 0.005698961
vt -0.09765746 0.007168745
vt -0.1047765 0.00289787
vt -0.1031624 0.0006761568
vt -0.09802106 0.008334781
vt -0.09993093 0.009061393
vt -0.1045581 0.002168632
vt -0.1000981 0.005520189
vt -0.09857926 0.0146186
vt -0.1006187 0.01449146
vt -0.1019857 0.006302887
vt -0.09831144 0.007814182
vt -0.1010439 0.01662449
vt -0.1028086 0.01559428
vt -0.1003494 0.007665007
vt -0.09708615 -0.005137886
vt -0.1043397 0.0005607217
vt -0.1052068 -0.001289581
vt -0.09867863 -0.006418329
vt -0.08504196 -0.03556772
vt -0.09418958 -0.03675469
vt -0.09347604 -0.03866947
vt -0.08524319 -0.0376012
vt -0.06394533 -0.0503004
vt -0.06985714 -0.05738125
vt -0.06803344 -0.05830302
vt -0.06271281 -0.05193027
vt -0.05493883 -0.04010995
vt -0.05628795 -0.04923508
vt -0.05425122 -0.04906997
vt -0.05303702 -0.04085735
vt -0.05881445 -0.01999411
vt -0.05610158 -0.02881048
vt -0.05433458 -0.02778419
vt -0.05677616 -0.01984947
vt -0.0708257 -0.001516832
vt -0.06471148 -0.008423652
vt -0.06352665 -0.00675881
vt -0.06902944 -0.0005426743
vt 0.1232086 -0.01848376
vt 0.1168815 -0.02385869
vt 0.117759 -0.02553269
vt 0.1247187 -0.01962027
vt 0.08910538 -0.06824815
vt 0.08088301 -0.06710193
vt 0.08021732 -0.06887084
vt 0.08926193 -0.07013168
vt 0.04161527 -0.07942741
vt 0.03656554 -0.07283791
vt 0.03484951 -0.07363
vt 0.04040421 -0.08087844
vt 0.02182745 -0.05433277
vt 0.02087573 -0.04608563
vt 0.01899643 -0.04588465
vt 0.02004332 -0.05495651
vt 0.02401443 -0.01891421
vt 0.02657761 -0.01101792
vt 0.02495198 -0.01005382
vt 0.02213248 -0.01873973
vt 0.04021602 0.01378386
vt 0.04573948 0.01998165
vt 0.04463911 0.02151831
vt 0.0385633 0.01470074
vt 0.06553413 0.03408756
vt 0.07318311 0.03731469
vt 0.07284881 0.03917491
vt 0.06443493 0.03562507
vt 0.09242237 0.03775684
vt 0.1007015 0.03714214
vt 0.1012519 0.03895021
vt 0.09214494 0.03962638
vt 0.1121432 0.03121318
vt 0.1192596 0.0269379
vt 0.120565 0.02830471
vt 0.1127369 0.03300751
vt 0.1223779 0.02501079
vt 0.1270487 0.01814748
vt 0.1288066 0.0188417
vt 0.1236687 0.02639135
vt 0.1266814 0.02148003
vt 0.1282139 0.01332081
vt 0.1301027 0.01325322
vt 0.128417 0.02222835
vt 0.1282951 0.0122967
vt 0.1261287 0.004282463
vt 0.1278004 0.003400595
vt 0.1301834 0.01221626
vt -0.01451514 0.1064493
vt -0.007758121 0.1003063
vt -0.00708543 0.1010462
vt -0.01384245 0.1071893
vt -0.1083821 0.05134157
vt -0.09938268 0.05289226
vt -0.0995525 0.05387773
vt -0.1085519 0.05232705
vt -0.1097631 -0.02436409
vt -0.1039387 -0.01733058
vt -0.1047089 -0.01669278
vt -0.1105333 -0.02372629
vt -0.08748022 -0.01857151
vt -0.08326058 -0.0104728
vt -0.08414743 -0.01001073
vt -0.08836707 -0.01810945
vt -0.06708304 0.01953628
vt -0.06318219 0.02779328
vt -0.06408636 0.02822044
vt -0.06798721 0.01996343
vt -0.04168505 0.06607022
vt -0.03714837 0.0739957
vt -0.03801624 0.07449249
vt -0.04255292 0.066567
vt 0.007757681 0.1003065
vt 0.01451468 0.1064495
vt 0.01384199 0.1071895
vt 0.007084986 0.1010464
vt 0.09938273 0.05289213
vt 0.1083822 0.05134143
vt 0.108552 0.05232691
vt 0.09955254 0.05387761
vt 0.1039386 -0.0173308
vt 0.109763 -0.02436432
vt 0.1105333 -0.02372652
vt 0.1047088 -0.01669301
vt 0.08326054 -0.01047291
vt 0.08748018 -0.01857165
vt 0.08836703 -0.01810958
vt 0.08414738 -0.01001085
vt 0.06318206 0.02779341
vt 0.0670829 0.0195364
vt 0.06798708 0.01996356
vt 0.06408624 0.02822056
vt 0.03714835 0.0739957
vt 0.04168503 0.06607023
vt 0.0425529 0.06656701
vt 0.03801623 0.07449249
vt -0.08536592 0.009437986
vt -0.07694818 0.005897333
vt -0.07660301 0.007895629
vt -0.08417898 0.01108222
vt -0.0989427 0.007919922
vt -0.08983547 0.008592928
vt -0.09043644 0.01052972
vt -0.09863295 0.009924013
vt -0.1050688 0.002576378
vt -0.0972379 0.007274472
vt -0.09864593 0.008733856
vt -0.1056937 0.004505571
vt -0.1046186 0.001776539
vt -0.09952388 0.009355338
vt -0.1014184 0.0100787
vt -0.1060036 0.00325778
vt -0.1018067 0.006048401
vt -0.1002859 0.01505294
vt -0.1023102 0.01493176
vt -0.1036789 0.006827676
vt -0.09999239 0.007669796
vt -0.1026682 0.01640105
vt -0.1044235 0.01538556
vt -0.1020153 0.007527429
vt -0.0982822 -0.006226397
vt -0.1054441 -0.0005605606
vt -0.1063119 -0.002393396
vt -0.09986615 -0.007492652
vt -0.08480694 -0.03757037
vt -0.09386212 -0.03875288
vt -0.09315351 -0.04065292
vt -0.08500385 -0.03958866
vt -0.06220917 -0.05188132
vt -0.06803565 -0.05891315
vt -0.06622291 -0.05982216
vt -0.06097909 -0.05349353
vt -0.05271997 -0.04062252
vt -0.05402898 -0.0496603
vt -0.05200811 -0.04949161
vt -0.05083002 -0.04135761
vt -0.05670433 -0.01948489
vt -0.05400581 -0.02820915
vt -0.05225317 -0.02718908
vt -0.05468183 -0.01933725
vt -0.06919025 -0.0001553629
vt -0.06313472 -0.006990948
vt -0.06195855 -0.005338995
vt -0.06740852 0.0008130314
vt -0.1242917 -0.01923311
vt -0.1180493 -0.02457935
vt -0.1171705 -0.02292145
vt -0.1227886 -0.01810984
vt -0.08875607 -0.0700324
vt -0.08061709 -0.06888934
vt -0.08127867 -0.06713341
vt -0.08860376 -0.06816217
vt -0.03978734 -0.08068223
vt -0.0348162 -0.0741372
vt -0.03652277 -0.07335706
vt -0.0409968 -0.07924758
vt -0.01973782 -0.05457468
vt -0.01882133 -0.04640708
vt -0.02068661 -0.0466113
vt -0.02151146 -0.05396214
vt -0.02213145 -0.01830034
vt -0.0246804 -0.01048673
vt -0.02629356 -0.01144524
vt -0.0239995 -0.01847749
vt -0.03879801 0.01509645
vt -0.04426786 0.02123081
vt -0.0453609 0.0197056
vt -0.04043803 0.01418467
vt -0.06484286 0.03582966
vt -0.07241485 0.0390257
vt -0.07274823 0.03717912
vt -0.06593344 0.03430267
vt -0.092595 0.03949248
vt -0.1007913 0.03888354
vt -0.1002458 0.03708813
vt -0.09286916 0.03763618
vt -0.1130213 0.03257541
vt -0.1200661 0.0283421
vt -0.1187708 0.02698443
vt -0.1124305 0.03079441
vt -0.1236579 0.02591112
vt -0.1282858 0.01911903
vt -0.1265413 0.01842769
vt -0.1223762 0.02454058
vt -0.1281189 0.02196618
vt -0.1296519 0.01389154
vt -0.1277765 0.01395379
vt -0.1263968 0.02122096
vt -0.1297088 0.01233525
vt -0.1275932 0.004393345
vt -0.1259298 0.005261718
vt -0.1278338 0.01240944
vt -0.1019456 -0.02488256
vt -0.09526072 -0.02804912
vt -0.08788814 -0.02744896
vt -0.08180337 -0.02324292
vt -0.07863683 -0.01655799
vt -0.07923697 -0.009185404
vt -0.08344302 -0.003100634
vt -0.09012794 6.591519E-05
vt -0.09750054 -0.0005342454
vt -0.1035853 -0.004740272
vt -0.1067518 -0.01142521
vt -0.1061517 -0.0187978
o group1503288799
g mesh1503288799
usemtl mat21
f 4/4/1 3/3/1 2/2/1 1/1/1
f 3/8/2 6/7/2 5/6/2 2/5/2
f 6/12/3 8/11/3 7/10/3 5/9/3
f 8/16/4 10/15/4 9/14/4 7/13/4
f 10/20/5 12/19/5 11/18/5 9/17/5
f 12/24/6 14/23/6 13/22/6 11/21/6
f 14/28/7 16/27/7 15/26/7 13/25/7
f 16/32/8 18/31/8 17/30/8 15/29/8
f 18/36/9 20/35/9 19/34/9 17/33/9
f 20/40/10 22/39/10 21/38/10 19/37/10
f 22/44/11 24/43/11 23/42/11 21/41/11
f 24/48/12 4/47/12 1/46/12 23/45/12
f 26/52/13 25/51/13 21/50/13 23/49/13
f 24/64/14 22/63/14 20/62/14 18/61/14 16/60/14 14/59/14 12/58/14 10/57/14 8/56/14 6/55/14 3/54/14 4/53/14
f 25/68/15 27/67/15 19/66/15 21/65/15
f 27/72/16 28/71/16 17/70/16 19/69/16
f 28/76/17 29/75/17 15/74/17 17/73/17
f 29/80/18 30/79/18 13/78/18 15/77/18
f 30/84/19 31/83/19 11/82/19 13/81/19
f 31/88/20 32/87/20 9/86/20 11/85/20
f 32/92/21 33/91/21 7/90/21 9/89/21
f 33/96/22 34/95/22 5/94/22 7/93/22
f 34/100/23 35/99/23 2/98/23 5/97/23
f 35/104/24 36/103/24 1/102/24 2/101/24
f 36/108/25 26/107/25 23/106/25 1/105/25
f 38/112/26 37/111/26 25/110/26 26/109/26
f 37/116/27 39/115/27 27/114/27 25/113/27
f 39/120/28 40/119/28 28/118/28 27/117/28
f 40/124/29 41/123/29 29/122/29 28/121/29
f 41/128/30 42/127/30 30/126/30 29/125/30
f 42/132/31 43/131/31 31/130/31 30/129/31
f 43/136/32 44/135/32 32/134/32 31/133/32
f 44/140/33 45/139/33 33/138/33 32/137/33
f 45/144/34 46/143/34 34/142/34 33/141/34
f 46/148/35 47/147/35 35/146/35 34/145/35
f 47/152/36 48/151/36 36/150/36 35/149/36
f 48/156/37 38/155/37 26/154/37 36/153/37
f 50/160/38 49/159/38 37/158/38 38/157/38
f 49/164/39 51/163/39 39/162/39 37/161/39
f 51/168/40 52/167/40 40/166/40 39/165/40
f 52/172/41 53/171/41 41/170/41 40/169/41
f 53/176/42 54/175/42 42/174/42 41/173/42
f 54/180/43 55/179/43 43/178/43 42/177/43
f 55/184/44 56/183/44 44/182/44 43/181/44
f 56/188/45 57/187/45 45/186/45 44/185/45
f 57/192/46 58/191/46 46/190/46 45/189/46
f 58/196/47 59/195/47 47/194/47 46/193/47
f 59/200/48 60/199/48 48/198/48 47/197/48
f 60/204/49 50/203/49 38/202/49 48/201/49
f 62/208/50 61/207/50 49/206/50 50/205/50
f 61/212/51 63/211/51 51/210/51 49/209/51
f 63/216/52 64/215/52 52/214/52 51/213/52
f 64/220/53 65/219/53 53/218/53 52/217/53
f 65/224/54 66/223/54 54/222/54 53/221/54
f 66/228/55 67/227/55 55/226/55 54/225/55
f 67/232/56 68/231/56 56/230/56 55/229/56
f 68/236/57 69/235/57 57/234/57 56/233/57
f 69/240/58 70/239/58 58/238/58 57/237/58
f 70/244/59 71/243/59 59/242/59 58/241/59
f 71/248/60 72/247/60 60/246/60 59/245/60
f 72/252/61 62/251/61 50/250/61 60/249/61
f 74/256/62 73/255/62 61/254/62 62/253/62
f 73/260/63 75/259/63 63/258/63 61/257/63
f 75/264/64 76/263/64 64/262/64 63/261/64
f 76/268/65 77/267/65 65/266/65 64/265/65
f 77/272/66 78/271/66 66/270/66 65/269/66
f 78/276/67 79/275/67 67/274/67 66/273/67
f 79/280/68 80/279/68 68/278/68 67/277/68
f 80/284/69 81/283/69 69/282/69 68/281/69
f 81/288/70 82/287/70 70/286/70 69/285/70
f 82/292/71 83/291/71 71/290/71 70/289/71
f 83/296/72 84/295/72 72/294/72 71/293/72
f 84/300/73 74/299/73 62/298/73 72/297/73
f 86/304/74 85/303/74 73/302/74 74/301/74
f 85/308/75 87/307/75 75/306/75 73/305/75
f 87/312/76 88/311/76 76/310/76 75/309/76
f 88/316/77 89/315/77 77/314/77 76/313/77
f 89/320/78 90/319/78 78/318/78 77/317/78
f 90/324/79 91/323/79 79/322/79 78/321/79
f 91/328/80 92/327/80 80/326/80 79/325/80
f 92/332/81 93/331/81 81/330/81 80/329/81
f 93/336/82 94/335/82 82/334/82 81/333/82
f 94/340/83 95/339/83 83/338/83 82/337/83
f 95/344/84 96/343/84 84/342/84 83/341/84
f 96/348/85 86/347/85 74/346/85 84/345/85
f 98/352/86 97/351/86 85/350/86 86/349/86
f 97/356/87 99/355/87 87/354/87 85/353/87
f 99/360/88 100/359/88 88/358/88 87/357/88
f 100/364/89 101/363/89 89/362/89 88/361/89
f 101/368/90 102/367/90 90/366/90 89/365/90
f 102/372/91 103/371/91 91/370/91 90/369/91
f 103/376/92 104/375/92 92/374/92 91/373/92
f 104/380/93 105/379/93 93/378/93 92/377/93
f 105/384/94 106/383/94 94/382/94 93/381/94
f 106/388/95 107/387/95 95/386/95 94/385/95
f 107/392/96 108/391/96 96/390/96 95/389/96
f 108/396/97 98/395/97 86/394/97 96/393/97
f 110/400/98 109/399/98 97/398/98 98/397/98
f 109/404/99 111/403/99 99/402/99 97/401/99
f 111/408/100 112/407/100 100/406/100 99/405/100
f 112/412/101 113/411/101 101/410/101 100/409/101
f 113/416/102 114/415/102 102/414/102 101/413/102
f 114/420/103 115/419/103 103/418/103 102/417/103
f 115/424/104 116/423/104 104/422/104 103/421/104
f 116/428/105 117/427/105 105/426/105 104/425/105
f 117/432/106 118/431/106 106/430/106 105/429/106
f 118/436/107 119/435/107 107/434/107 106/433/107
f 119/440/108 120/439/108 108/438/108 107/437/108
f 120/444/109 110/443/109 98/442/109 108/441/109
usemtl mat14
f 120/456/110 119/455/110 118/454/110 117/453/110 116/452/110 115/451/110 114/450/110 113/449/110 112/448/110 111/447/110 109/446/110 110/445/110
