mtllib materials.mtl
v 0.2025002 -0.13 5.960464E-08
v 0.1763751 -0.13 -0.09749997
v 0.176375 -0.15 -0.09749997
v 0.2025 -0.15 5.960464E-08
v 0.105 -0.13 -0.168875
v 0.105 -0.15 -0.1688749
v 0.007499993 -0.13 -0.1950001
v 0.007499993 -0.15 -0.1949999
v -0.09000003 -0.13 -0.1688749
v -0.09000003 -0.15 -0.1688749
v -0.161375 -0.1299999 -0.09749991
v -0.161375 -0.15 -0.09749991
v -0.1875001 -0.1299999 1.192093E-07
v -0.1875 -0.1499999 1.192093E-07
v -0.161375 -0.1299999 0.09750009
v -0.1613749 -0.1499999 0.09750021
v -0.08999997 -0.1299999 0.168875
v -0.08999997 -0.1499999 0.1688751
v 0.007500052 -0.1299999 0.1950002
v 0.007500052 -0.1499999 0.1950002
v 0.105 -0.1299999 0.168875
v 0.105 -0.15 0.1688751
v 0.1763752 -0.13 0.09749997
v 0.176375 -0.15 0.09750009
v 0.09525007 -0.1199999 0.1519874
v 0.1594876 -0.1199999 0.08774996
v 0.007499993 -0.1199999 0.1755002
v -0.08025002 -0.1199999 0.1519874
v -0.1444875 -0.1199999 0.08775008
v -0.1680001 -0.1199999 1.192093E-07
v -0.1444876 -0.1199999 -0.08774996
v -0.08025002 -0.1199999 -0.1519875
v 0.007499993 -0.1199999 -0.1755
v 0.09525007 -0.1199999 -0.1519876
v 0.1594877 -0.1199999 -0.08775002
v 0.1830002 -0.1199999 0
v 0.09525013 -0.02999991 0.1519874
v 0.1594876 -0.02999991 0.08774996
v 0.007499993 -0.02999991 0.1755002
v -0.08025002 -0.02999991 0.1519874
v -0.1444876 -0.02999991 0.08775008
v -0.1680002 -0.02999991 1.788139E-07
v -0.1444876 -0.02999991 -0.0877499
v -0.08025002 -0.02999991 -0.1519875
v 0.007499993 -0.02999991 -0.1755
v 0.09525007 -0.02999991 -0.1519876
v 0.1594878 -0.02999991 -0.08774996
v 0.1830003 -0.02999991 5.960464E-08
v 0.1040251 -0.01999992 0.1671861
v 0.1746863 -0.01999992 0.09652495
v 0.007499993 -0.01999992 0.1930501
v -0.08902502 -0.01999992 0.1671861
v -0.1596864 -0.01999992 0.09652507
v -0.1855502 -0.01999992 1.192093E-07
v -0.1596864 -0.01999992 -0.09652495
v -0.08902502 -0.01999992 -0.1671863
v 0.007499993 -0.01999992 -0.1930501
v 0.1040251 -0.01999992 -0.1671864
v 0.1746866 -0.01999992 -0.09652501
v 0.2005504 -0.01999992 0
v 0.1040251 5.960464E-08 0.1671861
v 0.1746864 5.960464E-08 0.09652495
v 0.007499993 5.960464E-08 0.1930501
v -0.08902502 5.960464E-08 0.1671861
v -0.1596864 5.960464E-08 0.09652495
v -0.1855503 5.960464E-08 5.960464E-08
v -0.1596864 5.960464E-08 -0.09652501
v -0.08902502 5.960464E-08 -0.1671864
v 0.007499993 5.960464E-08 -0.1930503
v 0.1040251 5.960464E-08 -0.1671865
v 0.1746867 5.960464E-08 -0.09652507
v 0.2005504 5.960464E-08 -5.960464E-08
v 0.09437257 0.02000004 0.1504675
v 0.1579677 0.02000004 0.08687246
v 0.007499933 0.02000004 0.1737452
v -0.07937258 0.02000004 0.1504675
v -0.1429678 0.02000004 0.08687246
v -0.1662453 0.02000004 0
v -0.1429678 0.02000004 -0.08687252
v -0.07937258 0.02000004 -0.1504679
v 0.007499933 0.02000004 -0.1737453
v 0.09437245 0.02000004 -0.1504679
v 0.157968 0.02000004 -0.08687264
v 0.1812454 0.02000004 -1.192093E-07
v 0.09437251 0.02999997 0.1504675
v 0.1579677 0.02999997 0.08687246
v 0.007499874 0.02999997 0.1737452
v -0.07937264 0.02999997 0.1504675
v -0.1429679 0.02999997 0.08687246
v -0.1662455 0.02999997 -5.960464E-08
v -0.1429679 0.02999997 -0.08687258
v -0.07937264 0.02999997 -0.150468
v 0.007499814 0.02999997 -0.1737454
v 0.09437239 0.02999997 -0.1504681
v 0.157968 0.02999997 -0.0868727
v 0.1812454 0.02999997 -1.788139E-07
v -0.1575 0.00999999 -0.02499998
v 0.1625001 0.00999999 -0.02500004
v 0.1625001 0.11 -0.02500004
v -0.1575 0.11 -0.02499998
v -0.1575 0.00999999 0.02500004
v -0.1575 0.11 0.02500004
v 0.1625001 0.11 0.02499998
v 0.1625001 0.00999999 0.02499998
v -0.1675 0.02208525 5.960464E-08
v -0.1775002 0.09791499 0
vn 0.9659258 -4.481685E-07 -0.2588194
vn 0.7071068 -7.283425E-07 -0.7071068
vn 0.2588187 -6.722389E-07 -0.965926
vn -0.2588193 -2.685997E-07 -0.9659258
vn -0.7071069 -3.097362E-07 -0.7071066
vn -0.9659258 -4.549182E-07 -0.258819
vn -0.9659258 -1.384361E-07 0.2588195
vn -0.7071066 1.211406E-07 0.707107
vn -0.2588193 3.37523E-07 0.9659258
vn 0.2588193 1.617641E-07 0.9659258
vn 0.7071067 -1.042746E-08 0.7071069
vn 0.9659259 -5.720745E-07 0.2588191
vn 0.3315787 0.8832394 0.3315778
vn -1.748456E-07 -1 1.748456E-07
vn 0.1213663 0.8832399 0.4529431
vn -0.1213664 0.8832397 0.4529436
vn -0.3315773 0.88324 0.3315775
vn -0.4529437 0.8832397 0.1213661
vn -0.4529428 0.8832402 -0.1213659
vn -0.3315781 0.883239 -0.3315794
vn -0.1213667 0.8832383 -0.4529462
vn 0.1213663 0.8832383 -0.4529464
vn 0.33158 0.883238 -0.3315803
vn 0.4529467 0.8832381 -0.1213667
vn 0.4529453 0.8832388 0.1213664
vn 0.7071067 -2.640743E-07 0.7071069
vn 0.2588206 -2.040195E-07 0.9659255
vn -0.2588208 -1.321884E-07 0.9659253
vn -0.7071062 -2.124084E-07 0.7071074
vn -0.9659257 -7.989275E-07 0.2588199
vn -0.9659258 -7.120439E-07 -0.258819
vn -0.7071067 -1.405637E-07 -0.7071069
vn -0.2588193 3.24453E-07 -0.9659258
vn 0.2588182 6.700109E-07 -0.9659261
vn 0.7071065 3.073205E-08 -0.7071071
vn 0.9659259 -1.113354E-06 -0.2588188
vn 0.9659256 -7.356126E-07 0.2588199
vn 0.3592712 -0.8613064 0.3592709
vn 0.1315031 -0.8613065 0.490773
vn -0.1315032 -0.8613065 0.4907729
vn -0.3592701 -0.8613067 0.3592712
vn -0.4907717 -0.8613073 0.1315023
vn -0.4907717 -0.8613074 -0.1315019
vn -0.3592696 -0.8613075 -0.3592698
vn -0.1315016 -0.861308 -0.4907706
vn 0.131501 -0.8613084 -0.4907702
vn 0.3592685 -0.8613082 -0.3592692
vn 0.4907712 -0.8613077 -0.1315016
vn 0.4907725 -0.8613067 0.1315031
vn 0.7071068 -3.64795E-07 0.7071068
vn 0.2588207 -2.442372E-07 0.9659254
vn -0.258821 5.033331E-07 0.9659254
vn -0.7071058 1.514255E-06 0.7071078
vn -0.9659256 -5.027861E-07 0.2588198
vn -0.9659258 -1.281058E-06 -0.2588193
vn -0.7071069 -2.964038E-06 -0.7071068
vn -0.2588193 -5.669784E-06 -0.9659258
vn 0.2588183 -4.747356E-06 -0.965926
vn 0.707106 -3.268098E-06 -0.7071077
vn 0.9659259 -3.867942E-06 -0.2588188
vn 0.9659253 -1.177508E-06 0.2588213
vn 0.5171846 0.6819385 0.5171847
vn 0.1893041 0.6819382 0.7064874
vn -0.1893045 0.6819376 0.7064878
vn -0.5171849 0.6819372 0.5171861
vn -0.7064885 0.6819371 0.1893037
vn -0.7064891 0.6819364 -0.1893035
vn -0.5171865 0.6819362 -0.5171859
vn -0.1893033 0.6819363 -0.7064894
vn 0.1893028 0.6819373 -0.7064886
vn 0.517184 0.6819381 -0.5171859
vn 0.7064878 0.6819382 -0.1893024
vn 0.7064869 0.6819385 0.1893044
vn 0.7071063 2.725358E-06 0.7071073
vn 0.258821 1.124731E-06 0.9659254
vn -0.2588214 -1.23149E-06 0.9659253
vn -0.7071059 -5.095244E-06 0.7071077
vn -0.9659257 -9.207865E-06 0.2588199
vn -0.9659256 -1.154347E-05 -0.2588196
vn -0.7071074 -1.007779E-05 -0.7071063
vn -0.258819 -9.203565E-06 -0.9659259
vn 0.2588185 -6.667586E-06 -0.9659261
vn 0.7071052 -3.963698E-06 -0.7071084
vn 0.9659261 -1.630997E-06 -0.2588184
vn 0.9659253 6.69505E-07 0.2588212
vn 1.748456E-07 1 -1.748456E-07
vn -1.192093E-07 0 -1
vn 1.192093E-07 0 1
vn 0 -1 0
vn 0 1 0
vn -0.9284763 -1.02489E-06 -0.3713915
vn 1 0 -1.192093E-07
vn -0.5171638 0.8558865 4.97565E-07
vn -0.9284763 -7.144803E-07 0.3713917
vn -0.7704438 -0.637508 -5.48357E-08
vn -0.7530377 -0.09930855 -0.6504399
vn -0.7530381 -0.09930759 0.6504395
vt 0.1249632 0.06269098
vt 0.1150159 0.06440499
vt 0.1146763 0.06243404
vt 0.1246236 0.06072002
vt 0.03004419 0.139488
vt 0.02257544 0.1326979
vt 0.02392083 0.1312181
vt 0.03138957 0.1380082
vt -0.02738456 0.1192339
vt -0.03239908 0.1104736
vt -0.03066333 0.1094801
vt -0.02564881 0.1182403
vt -0.05755068 0.07248826
vt -0.06186239 0.06336155
vt -0.06005404 0.06250723
vt -0.05574232 0.07163394
vt -0.08173142 0.02276056
vt -0.08639553 0.0138088
vt -0.08462183 0.01288467
vt -0.07995774 0.02183642
vt -0.108609 -0.001020281
vt -0.1150469 -0.008794645
vt -0.1135065 -0.01007025
vt -0.1070686 -0.002295889
vt -0.1150159 0.06440498
vt -0.1249632 0.06269097
vt -0.1246236 0.06072001
vt -0.1146763 0.06243403
vt -0.02257531 0.1326979
vt -0.03004405 0.139488
vt -0.03138945 0.1380082
vt -0.02392071 0.1312181
vt 0.03239908 0.1104737
vt 0.02738455 0.119234
vt 0.0256488 0.1182404
vt 0.03066333 0.1094801
vt 0.06186242 0.06336155
vt 0.0575507 0.07248826
vt 0.05574233 0.07163393
vt 0.06005406 0.06250723
vt 0.08639553 0.01380887
vt 0.08173142 0.02276063
vt 0.07995774 0.02183648
vt 0.08462184 0.01288472
vt 0.115047 -0.008794472
vt 0.1086091 -0.001020124
vt 0.1070687 -0.002295734
vt 0.1135066 -0.01007009
vt -0.0776616 -0.004327383
vt -0.07939248 -0.01427183
vt -0.07720497 -0.01414029
vt -0.07564718 -0.005190293
vt 0.1165742 0.04543903
vt 0.1065135 0.04625801
vt 0.09739126 0.04193693
vt 0.09165168 0.03363362
vt 0.0908327 0.02357295
vt 0.09515379 0.01445068
vt 0.1034571 0.008711091
vt 0.1135178 0.007892117
vt 0.12264 0.0122132
vt 0.1283796 0.0205165
vt 0.1291986 0.03057716
vt 0.1248775 0.03969945
vt -0.08121963 0.01885343
vt -0.07837759 0.009167845
vt -0.07647341 0.01025256
vt -0.07903124 0.0189696
vt -0.092421 0.03842475
vt -0.08575713 0.03084314
vt -0.08448855 0.03263009
vt -0.09048603 0.03945353
vt -0.1061138 0.04707135
vt -0.09680764 0.04316187
vt -0.09644699 0.04532345
vt -0.1048225 0.04884198
vt -0.1161674 0.04558984
vt -0.1061007 0.04633158
vt -0.1067608 0.04842128
vt -0.1158207 0.04775371
vt -0.1187486 0.0420995
vt -0.1100939 0.04729416
vt -0.1116241 0.0488629
vt -0.1194134 0.04418771
vt -0.115598 0.04340682
vt -0.110022 0.05182087
vt -0.1120785 0.05257821
vt -0.1170969 0.04500556
vt -0.1113359 0.04786829
vt -0.1098421 0.0578511
vt -0.1120258 0.05766755
vt -0.1133702 0.04868302
vt -0.1096727 0.04680126
vt -0.11294 0.05635177
vt -0.1147944 0.05518397
vt -0.1118538 0.0465885
vt -0.1103 0.02915535
vt -0.1184086 0.03516695
vt -0.1192732 0.03315327
vt -0.1119755 0.02774284
vt -0.1027949 -0.003140495
vt -0.1128133 -0.004372971
vt -0.112052 -0.006427941
vt -0.1030354 -0.00531871
vt -0.085892 -0.01736264
vt -0.09260038 -0.02490487
vt -0.09067149 -0.02594505
vt -0.08463396 -0.01915703
vt 0.08285149 0.02277514
vt 0.08704919 0.01471856
vt 0.09503078 0.01887718
vt 0.09083309 0.02693376
vt 0.05867057 0.07245896
vt 0.06255112 0.06424491
vt 0.07068871 0.06808934
vt 0.06680815 0.07630339
vt 0.0285031 0.1192929
vt 0.03301617 0.1114086
vt 0.04082703 0.1158797
vt 0.03631395 0.1237639
vt -0.02899776 0.1398885
vt -0.02227591 0.1337774
vt -0.01622168 0.1404367
vt -0.02294353 0.1465478
vt -0.1246356 0.0637622
vt -0.115683 0.0653048
vt -0.1172113 0.07417409
vt -0.1261639 0.07263149
vt -0.1154952 -0.007768158
vt -0.1097011 -0.0007712262
vt -0.1166329 0.004968981
vt -0.122427 -0.00202795
vt -0.08704916 0.0147185
vt -0.08285146 0.02277509
vt -0.09083306 0.02693371
vt -0.09503075 0.01887711
vt -0.06255104 0.06424507
vt -0.0586705 0.07245911
vt -0.06680809 0.07630353
vt -0.07068864 0.0680895
vt -0.03301641 0.1114084
vt -0.02850335 0.1192927
vt -0.03631422 0.1237637
vt -0.04082728 0.1158795
vt 0.02227602 0.1337774
vt 0.02899789 0.1398885
vt 0.02294367 0.1465478
vt 0.01622179 0.1404367
vt 0.1156831 0.0653047
vt 0.1246357 0.06376208
vt 0.126164 0.07263138
vt 0.1172113 0.074174
vt 0.1097011 -0.0007710099
vt 0.1154952 -0.00776793
vt 0.1224271 -0.00202771
vt 0.1166329 0.004969209
vt 0.1407529 0.0728899
vt 0.1458237 0.06535219
vt 0.1477102 0.06607388
vt 0.1421324 0.07436536
vt 0.1454467 0.06574853
vt 0.1469686 0.05679234
vt 0.148985 0.05667424
vt 0.147311 0.06652604
vt 0.1470875 0.04863014
vt 0.1444409 0.03993964
vt 0.1461913 0.03893174
vt 0.1491026 0.04849129
vt 0.1410805 0.008153496
vt 0.1339659 0.002504486
vt 0.134834 0.0006806455
vt 0.1426601 0.006894561
vt 0.1070321 -0.04520985
vt 0.09802456 -0.04402963
vt 0.09731848 -0.04592211
vt 0.1072268 -0.04722036
vt 0.05934246 -0.05429233
vt 0.05356001 -0.04728574
vt 0.0517529 -0.04818817
vt 0.05811359 -0.05589543
vt 0.0372778 -0.02210658
vt 0.03598947 -0.01311382
vt 0.03397677 -0.0129433
vt 0.03539392 -0.02283533
vt 0.03861487 0.02086751
vt 0.04130595 0.02954433
vt 0.03956066 0.0305612
vt 0.03660047 0.0210167
vt 0.05537099 0.05820654
vt 0.06139624 0.06500547
vt 0.06022451 0.06665079
vt 0.05359673 0.05917197
vt 0.08171661 0.08033461
vt 0.09009044 0.08385721
vt 0.08974595 0.08584753
vt 0.08053475 0.08197267
vt 0.1094733 0.08494553
vt 0.1185331 0.08427589
vt 0.1191312 0.08620523
vt 0.1091653 0.08694184
vt 0.1299177 0.07938996
vt 0.1377077 0.0747162
vt 0.1391098 0.07617024
vt 0.1305408 0.08131137
vt 0.09151008 0.02779864
vt 0.09612753 0.01893641
vt 0.09790122 0.01986055
vt 0.09328377 0.02872279
vt 0.06751832 0.07714123
vt 0.07178693 0.06810577
vt 0.07359527 0.06896009
vt 0.06932667 0.07799555
vt 0.03695606 0.1246549
vt 0.04192045 0.1159823
vt 0.04365619 0.1169758
vt 0.03869181 0.1256485
vt -0.02260711 0.1475932
vt -0.01521306 0.1408709
vt -0.01386767 0.1423508
vt -0.02126173 0.149073
vt -0.1267813 0.07353985
vt -0.1169334 0.07523671
vt -0.117273 0.07720767
vt -0.1271209 0.0755108
vt -0.1234869 -0.001740097
vt -0.1171134 0.005956532
vt -0.1186538 0.007232138
vt -0.1250273 -0.0004644929
vt -0.09612729 0.01893612
vt -0.09150983 0.02779838
vt -0.09328352 0.02872252
vt -0.09790097 0.01986026
vt -0.07178633 0.06810577
vt -0.06751772 0.07714121
vt -0.06932607 0.07799552
vt -0.07359467 0.06896009
vt -0.0419202 0.115982
vt -0.03695581 0.1246547
vt -0.03869155 0.1256482
vt -0.04365595 0.1169756
vt 0.01521333 0.140871
vt 0.02260743 0.1475932
vt 0.02126205 0.149073
vt 0.01386795 0.1423508
vt 0.1169335 0.07523686
vt 0.1267814 0.07353999
vt 0.127121 0.07551094
vt 0.1172731 0.07720782
vt 0.1171134 0.005956935
vt 0.1234869 -0.001739686
vt 0.1250273 -0.0004640825
vt 0.1186537 0.007232543
vt -0.01715432 -0.01865655
vt -0.0165751 -0.02863276
vt -0.01387421 -0.02797546
vt -0.01439551 -0.01899687
vt -0.02987279 0.03209503
vt -0.02615308 0.0228201
vt -0.02380112 0.02430169
vt -0.02714885 0.03264912
vt -0.05502718 0.07127484
vt -0.04838331 0.0638103
vt -0.04667294 0.06600152
vt -0.05265242 0.0727196
vt -0.08884481 0.08564579
vt -0.079717 0.08157842
vt -0.07906042 0.08427947
vt -0.08727543 0.08794011
vt -0.1185768 0.0728514
vt -0.108615 0.07364064
vt -0.109329 0.07632707
vt -0.1182946 0.07561676
vt -0.1291799 0.0550779
vt -0.1207175 0.06039276
vt -0.1225949 0.06244263
vt -0.1302111 0.05765926
vt -0.1248187 0.05410122
vt -0.1190656 0.06227202
vt -0.121589 0.06343774
vt -0.1267669 0.056084
vt -0.1169902 0.06611983
vt -0.1142066 0.07571734
vt -0.116972 0.07599913
vt -0.1194772 0.06736138
vt -0.1127668 0.07399894
vt -0.1132928 0.0839781
vt -0.1159972 0.0833352
vt -0.1155238 0.07435396
vt -0.118403 0.0503939
vt -0.1237607 0.05882935
vt -0.125801 0.05694154
vt -0.1209791 0.04934962
vt -0.09182164 -0.05618166
vt -0.1015343 -0.058532
vt -0.1004055 -0.06107222
vt -0.09166414 -0.05895691
vt -0.02527869 -0.06539194
vt -0.0288354 -0.07473058
vt -0.02610218 -0.07523689
vt -0.02290114 -0.06683212
vt 0.09528796 0.02920359
vt 0.09944367 0.02122757
vt 0.1003305 0.02168963
vt 0.0961748 0.02966565
vt 0.0713483 0.078398
vt 0.07519005 0.07026608
vt 0.07609423 0.07069324
vt 0.07225247 0.07882515
vt 0.04067599 0.1262085
vt 0.04514394 0.1184031
vt 0.04601181 0.1188999
vt 0.04154386 0.1267053
vt -0.01954554 0.150217
vt -0.01289092 0.144167
vt -0.01221823 0.1449069
vt -0.01887285 0.150957
vt -0.1269683 0.07756606
vt -0.1181052 0.07909326
vt -0.118275 0.08007874
vt -0.1271381 0.07855154
vt -0.1262485 0.001194387
vt -0.1205123 0.008121403
vt -0.1212825 0.008759195
vt -0.1270187 0.001832179
vt -0.09944327 0.02122688
vt -0.09528758 0.02920293
vt -0.09617441 0.029665
vt -0.1003301 0.02168894
vt -0.07518928 0.07026607
vt -0.07134753 0.07839796
vt -0.0722517 0.07882511
vt -0.07609345 0.07069322
vt -0.04514324 0.1184028
vt -0.04067528 0.1262082
vt -0.04154315 0.126705
vt -0.04601112 0.1188996
vt 0.01289221 0.1441668
vt 0.0195469 0.1502168
vt 0.01887421 0.1509567
vt 0.01221951 0.1449067
vt 0.1181052 0.07909362
vt 0.1269682 0.07756643
vt 0.127138 0.0785519
vt 0.118275 0.08007909
vt 0.1205127 0.008123009
vt 0.1262489 0.001196033
vt 0.1270191 0.001833829
vt 0.1212829 0.008760808
vt -0.1232576 0.0383234
vt -0.1271076 0.03019544
vt -0.1263779 0.02123136
vt -0.121264 0.01383313
vt -0.113136 0.009983025
vt -0.1041719 0.01071272
vt -0.0967737 0.0158267
vt -0.0929236 0.02395468
vt -0.09365331 0.03291873
vt -0.09876727 0.04031698
vt -0.1068953 0.04416711
vt -0.1158593 0.0434374
vt -0.06618762 0.08452336
vt -0.05187678 0.113145
vt -0.06082105 0.1176172
vt -0.07513189 0.08899549
vt 0.06618762 0.08452336
vt 0.07513189 0.08899549
vt 0.06082105 0.1176172
vt 0.05187678 0.113145
vt 0.1021117 0.01237718
vt 0.1068204 0.0106955
vt 0.1175832 0.04083125
vt 0.1128745 0.04251293
vt -0.1021117 0.01237717
vt -0.1128745 0.04251293
vt -0.1175832 0.04083125
vt -0.1068204 0.01069549
vt -0.1186528 0.0005337748
vt -0.1268018 0.006329741
vt -0.1211982 -0.0009599639
vt 0.1312436 0.02545825
vt 0.1353123 0.02255205
vt 0.1411246 0.03068938
vt 0.137056 0.03359558
vt -0.1165134 0.06211352
vt -0.1212749 0.06058766
vt -0.118181 0.05912529
vt -0.09831962 0.1151632
vt -0.09911297 0.1051947
vt -0.096333 0.1061858
vt 0.01887814 -0.1054252
vt 0.0159933 -0.1013414
vt 0.01615453 -0.1042883
vt -0.1045903 0.006523007
vt -0.104886 0.003113746
vt -0.09773789 0.0003924028
vt -0.00319625 0.1423803
vt 0.002553964 0.1474238
vt 0.00108779 0.1505158
o group1688794526
g mesh1688794526
usemtl mat23
f 4/4/1 3/3/1 2/2/1 1/1/1
f 3/8/2 6/7/2 5/6/2 2/5/2
f 6/12/3 8/11/3 7/10/3 5/9/3
f 8/16/4 10/15/4 9/14/4 7/13/4
f 10/20/5 12/19/5 11/18/5 9/17/5
f 12/24/6 14/23/6 13/22/6 11/21/6
f 14/28/7 16/27/7 15/26/7 13/25/7
f 16/32/8 18/31/8 17/30/8 15/29/8
f 18/36/9 20/35/9 19/34/9 17/33/9
f 20/40/10 22/39/10 21/38/10 19/37/10
f 22/44/11 24/43/11 23/42/11 21/41/11
f 24/48/12 4/47/12 1/46/12 23/45/12
f 26/52/13 25/51/13 21/50/13 23/49/13
f 24/64/14 22/63/14 20/62/14 18/61/14 16/60/14 14/59/14 12/58/14 10/57/14 8/56/14 6/55/14 3/54/14 4/53/14
f 25/68/15 27/67/15 19/66/15 21/65/15
f 27/72/16 28/71/16 17/70/16 19/69/16
f 28/76/17 29/75/17 15/74/17 17/73/17
f 29/80/18 30/79/18 13/78/18 15/77/18
f 30/84/19 31/83/19 11/82/19 13/81/19
f 31/88/20 32/87/20 9/86/20 11/85/20
f 32/92/21 33/91/21 7/90/21 9/89/21
f 33/96/22 34/95/22 5/94/22 7/93/22
f 34/100/23 35/99/23 2/98/23 5/97/23
f 35/104/24 36/103/24 1/102/24 2/101/24
f 36/108/25 26/107/25 23/106/25 1/105/25
f 38/112/26 37/111/26 25/110/26 26/109/26
f 37/116/27 39/115/27 27/114/27 25/113/27
f 39/120/28 40/119/28 28/118/28 27/117/28
f 40/124/29 41/123/29 29/122/29 28/121/29
f 41/128/30 42/127/30 30/126/30 29/125/30
f 42/132/31 43/131/31 31/130/31 30/129/31
f 43/136/32 44/135/32 32/134/32 31/133/32
f 44/140/33 45/139/33 33/138/33 32/137/33
f 45/144/34 46/143/34 34/142/34 33/141/34
f 46/148/35 47/147/35 35/146/35 34/145/35
f 47/152/36 48/151/36 36/150/36 35/149/36
f 48/156/37 38/155/37 26/154/37 36/153/37
f 50/160/38 49/159/38 37/158/38 38/157/38
f 49/164/39 51/163/39 39/162/39 37/161/39
f 51/168/40 52/167/40 40/166/40 39/165/40
f 52/172/41 53/171/41 41/170/41 40/169/41
f 53/176/42 54/175/42 42/174/42 41/173/42
f 54/180/43 55/179/43 43/178/43 42/177/43
f 55/184/44 56/183/44 44/182/44 43/181/44
f 56/188/45 57/187/45 45/186/45 44/185/45
f 57/192/46 58/191/46 46/190/46 45/189/46
f 58/196/47 59/195/47 47/194/47 46/193/47
f 59/200/48 60/199/48 48/198/48 47/197/48
f 60/204/49 50/203/49 38/202/49 48/201/49
f 62/208/50 61/207/50 49/206/50 50/205/50
f 61/212/51 63/211/51 51/210/51 49/209/51
f 63/216/52 64/215/52 52/214/52 51/213/52
f 64/220/53 65/219/53 53/218/53 52/217/53
f 65/224/54 66/223/54 54/222/54 53/221/54
f 66/228/55 67/227/55 55/226/55 54/225/55
f 67/232/56 68/231/56 56/230/56 55/229/56
f 68/236/57 69/235/57 57/234/57 56/233/57
f 69/240/58 70/239/58 58/238/58 57/237/58
f 70/244/59 71/243/59 59/242/59 58/241/59
f 71/248/60 72/247/60 60/246/60 59/245/60
f 72/252/61 62/251/61 50/250/61 60/249/61
f 74/256/62 73/255/62 61/254/62 62/253/62
f 73/260/63 75/259/63 63/258/63 61/257/63
f 75/264/64 76/263/64 64/262/64 63/261/64
f 76/268/65 77/267/65 65/266/65 64/265/65
f 77/272/66 78/271/66 66/270/66 65/269/66
f 78/276/67 79/275/67 67/274/67 66/273/67
f 79/280/68 80/279/68 68/278/68 67/277/68
f 80/284/69 81/283/69 69/282/69 68/281/69
f 81/288/70 82/287/70 70/286/70 69/285/70
f 82/292/71 83/291/71 71/290/71 70/289/71
f 83/296/72 84/295/72 72/294/72 71/293/72
f 84/300/73 74/299/73 62/298/73 72/297/73
f 86/304/74 85/303/74 73/302/74 74/301/74
f 85/308/75 87/307/75 75/306/75 73/305/75
f 87/312/76 88/311/76 76/310/76 75/309/76
f 88/316/77 89/315/77 77/314/77 76/313/77
f 89/320/78 90/319/78 78/318/78 77/317/78
f 90/324/79 91/323/79 79/322/79 78/321/79
f 91/328/80 92/327/80 80/326/80 79/325/80
f 92/332/81 93/331/81 81/330/81 80/329/81
f 93/336/82 94/335/82 82/334/82 81/333/82
f 94/340/83 95/339/83 83/338/83 82/337/83
f 95/344/84 96/343/84 84/342/84 83/341/84
f 96/348/85 86/347/85 74/346/85 84/345/85
f 96/360/86 95/359/86 94/358/86 93/357/86 92/356/86 91/355/86 90/354/86 89/353/86 88/352/86 87/351/86 85/350/86 86/349/86
o group1612639319
g mesh1612639319
usemtl mat23
f 100/364/87 99/363/87 98/362/87 97/361/87
f 104/368/88 103/367/88 102/366/88 101/365/88
f 98/372/89 104/371/89 101/370/89 97/369/89
f 102/376/90 103/375/90 99/374/90 100/373/90
f 105/379/91 100/378/91 97/377/91
f 99/383/92 103/382/92 104/381/92 98/380/92
f 105/389/94 101/388/94 102/387/94
f 105/392/95 97/391/95 101/390/95
f 105/395/96 106/394/96 100/393/96
f 102/398/97 106/397/97 105/396/97
usemtl mat21
f 106/386/93 102/385/93 100/384/93
