mtllib materials.mtl
v -0.6950004 -0.1349999 -1.07
v 0.6950001 -0.1350001 -1.070001
v 0.6949999 0.04499984 -1.07
v -0.6950002 0.04500008 -1.07
v -0.6950001 -0.1349999 1.070001
v -0.6949999 0.04500008 1.07
v 0.6950002 0.04499984 1.07
v 0.6950004 -0.1350001 1.07
v 0.695 0.135 -1.07
v -0.6950002 0.1350002 -1.07
v -0.6950006 0.04500008 -0.8025002
v -0.6950008 0.04500008 -0.7356255
v -0.6950008 0.04500008 -0.6687503
v -0.6950006 0.04500008 -0.5350001
v -0.6950004 0.04500008 1.192093E-07
v -0.6950002 0.04500008 0.5350003
v -0.6950004 0.04500008 0.6687506
v -0.6950004 0.04500008 0.7356259
v -0.6950001 0.04500008 0.8025006
v 0.6950003 0.04499984 -1.036563
v 0.6950002 0.04499984 -1.192093E-07
v 0.6950004 0.04499984 0.5350001
v 0.6950005 0.04499984 0.6687504
v 0.6950003 0.04499984 -0.5350003
v 0.6950003 0.04499984 -0.8025005
v 0.6950005 0.04499984 -0.7356257
v 0.6950004 0.04499984 0.8025004
v 0.6950015 0.004999876 0.8693768
v -0.6950015 0.005000114 0.869377
v 0.6950009 -0.005000114 -0.9262514
v 0.6950006 0.01499987 -0.8593761
v -0.6950011 0.0150001 -0.8593758
v -0.6950013 -0.004999876 -0.9262511
v 0.6950006 -0.005000114 0.9262506
v 0.6950007 0.01499987 0.9931256
v -0.6950004 0.0150001 0.9931258
v -0.6950004 -0.004999876 0.9262508
v 0.6950006 0.04499984 0.7356256
v 0.6950005 0.04499984 -0.6687506
v 0.6950005 0.04499984 1.036563
v -0.6950001 0.04500008 1.036563
v 0.6950004 0.135 1.07
v 0.6950007 0.135 1.036562
v 0.695001 0.004999876 -0.9831267
v -0.6950015 0.005000114 -0.9831265
v -0.6950006 0.04500008 -1.036563
v 0.6950004 0.135 -1.036563
v -0.6950006 0.1350002 -1.036563
v -0.6949999 0.1350002 1.07
v -0.6950001 0.1350002 1.036563
vn -1.192093E-07 0 -1
vn 1.192093E-07 0 1
vn -1.748456E-07 -1 0
vn -1.19209E-07 1.613659E-06 -1
vn -1 1.748456E-07 1.192093E-07
vn 1 -1.748456E-07 -1.192093E-07
vn 1.748456E-07 1 0
vn 1.748456E-07 1 0
vn 1.748456E-07 1 0
vn 1.748456E-07 1 0
vn 2.437101E-07 0.8582048 0.5133075
vn 1.51358E-07 0.9580725 -0.286526
vn 1.068192E-07 0.9580724 -0.2865262
vn 1.748456E-07 1 0
vn 1.748456E-07 1 0
vn 7.677316E-08 0.8228306 -0.5682868
vn 1 -2.16162E-06 9.074973E-06
vn 1.928472E-07 0.9848926 0.1731663
vn 2.481898E-07 0.8005563 0.5992576
vn 1 -1.168249E-06 -1.097914E-05
vn 1.620903E-07 -2.684623E-07 1
vn -1 -8.18555E-07 -1.065951E-05
vn 1.748456E-07 1 0
vn 1.192099E-07 3.819647E-06 1
vn -1 -1.562583E-07 6.918771E-06
vn -1.192103E-07 -5.892121E-06 -1
vn 1.748456E-07 1 0
vn -1 1.748452E-07 -9.982326E-06
vn -1 -2.683711E-06 5.337327E-06
vn -1 -6.927641E-05 4.60011E-05
vn -1 1.748456E-07 1.192093E-07
vn -1 1.748456E-07 1.192093E-07
vn -1 -0.000262035 -0.0001666614
vn 1 -1.748459E-07 9.982326E-06
vn 1 1.855766E-05 1.745766E-05
vn 1 -0.0002296077 -0.0001588792
vn 1 -1.748456E-07 -1.192093E-07
vn 1 -2.233887E-06 1.703218E-06
vn 1 -1.781278E-05 1.021439E-05
vn 1 -1.748456E-07 -1.192093E-07
vn -1 2.780759E-05 2.55018E-05
vn -1 -1.236062E-05 6.326748E-06
vn 1 -5.521381E-05 3.473934E-05
vn 7.929486E-08 0.8844985 -0.4665431
vn 1.928476E-07 0.9848918 0.1731711
vn -1 5.767183E-07 -1.659786E-05
vn 1 -8.682674E-08 -1.118142E-05
vn 1.748456E-07 1 0
vn 1.748456E-07 1 0
vt -0.1775438 -0.07334305
vt -0.1153811 0.05098236
vt -0.1314808 0.05903219
vt -0.1936435 -0.0652932
vt 0.1775438 -0.07334305
vt 0.1936435 -0.06529319
vt 0.1314808 0.05903219
vt 0.1153811 0.05098236
vt -0.09773938 -0.1190631
vt 0.1037935 -0.1910391
vt 0.1505442 -0.06013696
vt -0.05098863 0.01183904
vt -0.1936434 -0.06529333
vt -0.1314807 0.05903209
vt -0.1395306 0.06305702
vt -0.2016933 -0.0612684
vt -0.03092181 0.1327548
vt -0.06315146 0.1318539
vt -0.06859329 0.1279669
vt -0.07403515 0.1240798
vt -0.08491885 0.1163058
vt -0.1284536 0.08520953
vt -0.1719884 0.05411329
vt -0.1828721 0.04633921
vt -0.1883139 0.04245217
vt -0.1937558 0.03856516
vt -0.2050609 0.008369843
vt 0.0309218 0.1327548
vt 0.04410499 0.1454585
vt 0.0413841 0.147402
vt -0.04977781 -0.02414896
vt -0.100161 -0.04214295
vt -0.05341026 -0.1730451
vt -0.003027047 -0.1550511
vt -0.100161 -0.04214295
vt -0.1127568 -0.04664145
vt -0.06600608 -0.1775437
vt -0.05341026 -0.1730451
vt 0.0006054034 -0.006154946
vt -0.04977781 -0.02414896
vt -0.003027047 -0.1550511
vt 0.04735617 -0.1370572
vt 0.02579702 0.002842059
vt 0.01949913 0.0005928402
vt 0.06624991 -0.1303094
vt 0.07254778 -0.1280602
vt -0.03378767 -0.02591373
vt -0.04057766 -0.02973742
vt 0.0276291 -0.1508528
vt 0.03441896 -0.1470288
vt -0.002536418 -0.006621966
vt -0.009382487 -0.007983719
vt 0.01773421 -0.1443132
vt 0.02458029 -0.1429515
vt -0.1766095 -0.0412461
vt -0.1834555 -0.04260781
vt -0.1563389 -0.1789373
vt -0.1494928 -0.1775755
vt -0.1127568 -0.04664145
vt -0.1190548 -0.04889069
vt -0.072304 -0.1797929
vt -0.06600608 -0.1775437
vt 0.01320122 -0.001656421
vt 0.0006054034 -0.006154946
vt 0.04735617 -0.1370572
vt 0.059952 -0.1325587
vt -0.2070334 -0.008013537
vt -0.2123122 -0.008064894
vt -0.2109606 -0.1470584
vt -0.2056818 -0.1470071
vt 0.2128025 0.02495833
vt 0.2155234 0.0230148
vt 0.2207546 0.0303384
vt 0.2180337 0.03228192
vt 0.06368238 0.02136293
vt 0.05839339 0.0190446
vt 0.114196 -0.1082626
vt 0.119485 -0.1059443
vt 0.1111119 0.05810774
vt 0.1053517 0.05473502
vt 0.1755875 -0.06521501
vt 0.1813475 -0.06184214
vt 0.04138179 0.1474027
vt 0.04410271 0.1454592
vt 0.04933375 0.1527829
vt 0.04661284 0.1547264
vt 0.1314808 0.05903221
vt 0.1936435 -0.06529325
vt 0.2016933 -0.06126832
vt 0.1395306 0.06305714
vt -0.04410857 0.1454571
vt -0.0413877 0.1474006
vt -0.04661898 0.1547241
vt -0.04933984 0.1527806
vt 0.09773934 -0.1190631
vt 0.0509886 0.01183902
vt 0.04783968 0.01071445
vt 0.09459044 -0.1201878
vt 0.1314802 0.05903205
vt 0.193643 -0.06529325
vt 0.2016929 -0.06126831
vt 0.13953 0.06305701
vt -0.2155222 0.02301955
vt -0.2128013 0.02496303
vt -0.2180323 0.03228671
vt -0.2207532 0.03034324
vt -0.1936428 -0.0652933
vt -0.1314798 0.05903202
vt -0.1395297 0.06305698
vt -0.2016926 -0.06126836
vt -0.1473952 -0.05901229
vt -0.1505442 -0.06013693
vt -0.1037934 -0.1910391
vt -0.1006445 -0.1899145
vt -0.03092477 0.1327536
vt -0.04138727 0.1474006
vt -0.04410813 0.1454571
vt -0.03092087 0.1327557
vt -0.0461274 0.1390986
vt -0.05017431 0.1349791
vt -0.03092291 0.1327667
vt -0.0567807 0.1327303
vt -0.06315257 0.1318657
vt -0.2075239 0.0250441
vt -0.2128022 0.02496056
vt -0.2155231 0.02301706
vt -0.2050609 0.008369843
vt -0.2009196 0.02730366
vt -0.2075239 0.0250441
vt -0.2050609 0.008369843
vt -0.1938156 0.03849113
vt -0.1969293 0.03134763
vt -0.2051065 0.008290523
vt 0.205061 0.008367072
vt 0.2155235 0.02301415
vt 0.2128026 0.02495768
vt 0.2075243 0.02504129
vt 0.2050613 0.008361467
vt 0.2009208 0.02729546
vt 0.1968742 0.03141508
vt 0.2050557 0.008456884
vt 0.1968578 0.03150665
vt 0.1937377 0.03864736
vt 0.2050609 0.008369849
vt 0.2075239 0.0250441
vt 0.2009196 0.02730367
vt 0.03092187 0.1327548
vt 0.05017532 0.1349781
vt 0.04612842 0.1390976
vt 0.03092139 0.1327548
vt 0.05677918 0.1327186
vt 0.05017483 0.1349781
vt 0.0309218 0.1327548
vt 0.2050609 0.008369849
vt 0.1937558 0.03856516
vt 0.1883139 0.04245218
vt 0.1828721 0.04633922
vt 0.1719884 0.05411329
vt 0.1284536 0.08520953
vt 0.08491884 0.1163058
vt 0.07403514 0.1240799
vt 0.06859328 0.1279669
vt 0.06315146 0.1318539
vt -0.1968656 0.03143375
vt -0.2009126 0.02731454
vt -0.205055 0.008380973
vt -0.03092261 0.1327567
vt -0.05017607 0.1349799
vt -0.05678041 0.1327203
vt 0.03092099 0.1327546
vt 0.06315066 0.1318539
vt 0.05677879 0.1327185
vt -0.03779384 -0.00914294
vt -0.04420226 -0.009672445
vt -0.032757 -0.1482005
vt -0.02634856 -0.1476711
vt -0.1034203 -0.05188344
vt -0.1087091 -0.0542018
vt -0.05290629 -0.1815088
vt -0.0476174 -0.1791907
vt -0.0441101 0.1454561
vt -0.04613332 0.1390952
vt -0.03092664 0.1327527
vt 0.03091981 0.1327553
vt 0.04612627 0.1390984
vt 0.04410282 0.1454592
vt -0.1190548 -0.04889069
vt -0.1253527 -0.05113996
vt -0.07860188 -0.1820422
vt -0.072304 -0.1797929
vt 0.01949913 0.0005928402
vt 0.01320122 -0.001656421
vt 0.059952 -0.1325587
vt 0.06624991 -0.1303094
o group1727261204
g mesh1727261204
usemtl mat20
f 4/4/1 3/3/1 2/2/1 1/1/1
f 8/8/2 7/7/2 6/6/2 5/5/2
f 5/27/5 19/26/5 18/25/5 17/24/5 16/23/5 15/22/5 14/21/5 13/20/5 12/19/5 11/18/5 1/17/5
f 3/30/6 20/29/6 2/28/6
f 15/34/7 16/33/7 22/32/7 21/31/7
f 16/38/8 17/37/8 23/36/8 22/35/8
f 14/42/9 15/41/9 21/40/9 24/39/9
f 17/62/14 18/61/14 38/60/14 23/59/14
f 13/66/15 14/65/15 24/64/15 39/63/15
f 46/117/28 4/116/28 1/115/28
f 33/120/29 45/119/29 1/118/29
f 11/123/30 32/122/30 1/121/30
f 5/127/31 6/126/31 41/125/31 36/124/31
f 5/130/32 36/129/32 37/128/32
f 5/133/33 29/132/33 19/131/33
f 35/137/34 40/136/34 7/135/34 8/134/34
f 28/140/35 34/139/35 8/138/35
f 27/143/36 28/142/36 8/141/36
f 34/146/37 35/145/37 8/144/37
f 44/149/38 30/148/38 2/147/38
f 30/152/39 31/151/39 2/150/39
f 25/163/40 26/162/40 39/161/40 24/160/40 21/159/40 22/158/40 23/157/40 38/156/40 27/155/40 8/154/40 2/153/40
f 5/166/41 37/165/41 29/164/41
f 32/169/42 33/168/42 1/167/42
f 31/172/43 25/171/43 2/170/43
f 1/183/46 45/182/46 46/181/46
f 20/186/47 44/185/47 2/184/47
f 12/194/49 13/193/49 39/192/49 26/191/49
usemtl mat18
f 2/12/3 8/11/3 5/10/3 1/9/3
usemtl mat17
f 10/16/4 9/15/4 3/14/4 4/13/4
f 43/74/17 42/73/17 7/72/17 40/71/17
f 9/86/20 47/85/20 20/84/20 3/83/20
f 47/90/21 48/89/21 46/88/21 20/87/21
f 48/94/22 10/93/22 4/92/22 46/91/22
f 48/98/23 47/97/23 9/96/23 10/95/23
f 42/102/24 49/101/24 6/100/24 7/99/24
f 49/106/25 50/105/25 41/104/25 6/103/25
f 50/110/26 43/109/26 40/108/26 41/107/26
f 50/114/27 49/113/27 42/112/27 43/111/27
usemtl mat14
f 11/46/10 12/45/10 26/44/10 25/43/10
f 18/190/48 19/189/48 27/188/48 38/187/48
usemtl mat16
f 19/50/11 29/49/11 28/48/11 27/47/11
f 33/54/12 32/53/12 31/52/12 30/51/12
f 37/58/13 36/57/13 35/56/13 34/55/13
f 36/70/16 41/69/16 40/68/16 35/67/16
f 45/78/18 33/77/18 30/76/18 44/75/18
f 46/82/19 45/81/19 44/80/19 20/79/19
f 32/176/44 11/175/44 25/174/44 31/173/44
f 29/180/45 37/179/45 34/178/45 28/177/45
