mtllib materials.mtl
v 7.450581E-09 0.0575 0.01999998
v 0.01000001 0.0575 0.01732051
v 0.01000001 -0.1125 0.01732051
v 7.450581E-09 -0.1125 0.01999998
v 0.01732052 0.0575 0.00999999
v 0.01732052 -0.1125 0.00999999
v 0.02 0.0575 0
v 0.02 -0.1125 0
v 0.01732052 0.0575 -0.00999999
v 0.01732052 -0.1125 -0.00999999
v 0.01000001 0.0575 -0.01732051
v 0.01000001 -0.1125 -0.01732051
v 7.450581E-09 0.0575 -0.01999998
v 7.450581E-09 -0.1125 -0.01999998
v -0.009999998 0.0575 -0.01732051
v -0.009999998 -0.1125 -0.01732051
v -0.0173205 0.0575 -0.00999999
v -0.0173205 -0.1125 -0.00999999
v -0.01999999 0.0575 0
v -0.01999999 -0.1125 0
v -0.0173205 0.0575 0.00999999
v -0.0173205 -0.1125 0.00999999
v -0.00999999 0.0575 0.01732051
v -0.00999999 -0.1125 0.01732051
v 0.004500009 -0.1224999 0.0167942
v 0.01679426 -0.1224999 0.004499912
v 0.01229426 -0.1224999 -0.01229429
v -0.004499979 -0.1224999 -0.01679432
v -0.01679422 -0.1224999 -0.004500031
v -0.01229423 -0.1224999 0.01229417
v 0.01679423 -0.1924999 0.004499674
v 0.004499994 -0.1924999 0.01679397
v 0.01229424 -0.1924999 -0.01229453
v -0.004500017 -0.1924999 -0.01679456
v -0.01679423 -0.1924999 -0.00450027
v -0.01229426 -0.1924999 0.01229393
v -7.450581E-09 0.09250009 0.02499998
v 0.0125 0.09250009 0.02165061
v 0.0125 0.03250009 0.02165061
v -7.450581E-09 0.03250009 0.02499998
v 0.02165063 0.09250009 0.01249999
v 0.02165063 0.03250009 0.01249999
v 0.025 0.09250009 0
v 0.025 0.03250009 0
v 0.02165063 0.09250009 -0.01249999
v 0.02165063 0.03250009 -0.01249999
v 0.0125 0.09250009 -0.02165061
v 0.0125 0.03250009 -0.02165061
v -7.450581E-09 0.09250009 -0.02499998
v -7.450581E-09 0.03250009 -0.02499998
v -0.01250001 0.09250009 -0.02165061
v -0.01250001 0.03250009 -0.02165061
v -0.02165065 0.09250009 -0.01249999
v -0.02165065 0.03250009 -0.01249999
v -0.02500001 0.09250009 0
v -0.02500001 0.03250009 0
v -0.02165065 0.09250009 0.01249999
v -0.02165065 0.03250009 0.01249999
v -0.0125 0.09250009 0.02165067
v -0.0125 0.03250009 0.02165067
v -0.02058955 0.1025 0.01188737
v -0.01188737 0.1025 0.02058959
v -0.02377477 0.1025 0
v -0.02058955 0.1025 -0.01188737
v -0.01188739 0.1025 -0.02058953
v -7.450581E-09 0.1025 -0.02377474
v 0.01188738 0.1025 -0.02058953
v 0.02058954 0.1025 -0.01188737
v 0.02377475 0.1025 0
v 0.02058955 0.1025 0.01188731
v 0.01188738 0.1025 0.02058947
v -7.450581E-09 0.1025 0.02377474
vn 0 0 1
vn 0.5 0 0.8660254
vn 0.8660254 0 0.5
vn 1 0 -4.371139E-08
vn 0.8660254 0 -0.5000001
vn 0.5000001 0 -0.8660254
vn -8.742278E-08 0 -1
vn -0.5000002 0 -0.8660253
vn -0.8660254 0 -0.4999999
vn -1 0 1.192488E-08
vn -0.8660254 0 0.4999999
vn -0.4999998 0 0.8660256
vn 0 1 0
vn 0.2541204 -0.1896809 0.9483902
vn 0.6505089 -0.3920185 0.6505073
vn 0.9483906 -0.1896788 0.2541206
vn 0.8886127 -0.3920131 -0.2381033
vn 0.6942712 -0.1896734 -0.6942705
vn 0.2381044 -0.3920098 -0.8886139
vn -0.2541214 -0.1896704 -0.948392
vn -0.6505108 -0.392013 -0.6505086
vn -0.9483907 -0.189678 -0.2541206
vn -0.8886113 -0.3920168 0.2381026
vn -0.6942697 -0.189682 0.6942697
vn -0.2381032 -0.392019 0.8886101
vn 0.7071083 -2.629827E-06 0.7071053
vn 0.9659258 5.748668E-07 -0.2588191
vn 0.2588205 3.193878E-06 -0.9659255
vn -0.7071087 2.675551E-06 -0.707105
vn -0.9659259 -5.755734E-07 0.2588187
vn -0.2588206 -3.207229E-06 0.9659255
vn 0 -1 0
vn 0.2588189 4.155269E-07 0.9659259
vn 0.7071062 8.362709E-08 0.7071074
vn 0.9659258 -5.08446E-08 0.2588192
vn 0.9659258 -8.611319E-10 -0.2588192
vn 0.7071062 3.111385E-07 -0.7071074
vn 0.2588188 4.4104E-07 -0.9659259
vn -0.2588189 3.784525E-07 -0.9659259
vn -0.7071063 8.710627E-08 -0.7071074
vn -0.9659258 -2.362334E-08 -0.2588192
vn -0.9659258 -1.879526E-08 0.2588193
vn -0.7071083 -3.070584E-07 0.7071053
vn -0.2588147 4.520641E-07 0.965927
vn -0.7022075 0.1175306 0.7022046
vn 0 -1 0
vn -0.9592311 0.1175307 0.2570257
vn -0.9592311 0.1175308 -0.2570257
vn -0.7022056 0.1175305 -0.7022065
vn -0.2570251 0.1175297 -0.9592314
vn 0.2570251 0.1175297 -0.9592314
vn 0.7022058 0.1175302 -0.7022064
vn 0.9592311 0.1175311 -0.2570254
vn 0.9592311 0.117531 0.2570254
vn 0.7022052 0.1175339 0.7022064
vn 0.2570272 0.1175325 0.9592305
vn -0.257021 0.1175298 0.9592325
vn 0 1 0
vt 0.08139287 0.05411284
vt 0.08094566 0.05500727
vt 0.06574039 0.04740464
vt 0.06618761 0.04651021
vt 0.0976861 0.02058509
vt 0.09725436 0.02148709
vt 0.08192043 0.01414744
vt 0.08235218 0.01324545
vt 0.1103198 0.005988283
vt 0.1097942 0.006839014
vt 0.09533178 -0.002096192
vt 0.09585738 -0.002946923
vt 0.111714 0.03940795
vt 0.1109002 0.03998918
vt 0.1010192 0.02615572
vt 0.1018329 0.02557448
vt 0.02606161 0.1137562
vt 0.02512727 0.1133998
vt 0.03118554 0.09751595
vt 0.03211989 0.09787232
vt -0.05233413 0.09295598
vt -0.05292233 0.09214726
vt -0.03917413 0.08214791
vt -0.03858594 0.08295663
vt -0.08139287 0.05411284
vt -0.08184008 0.05321841
vt -0.06663483 0.04561578
vt -0.06618761 0.04651021
vt -0.09768611 0.02058508
vt -0.09811785 0.01968308
vt -0.08278392 0.01234344
vt -0.08235218 0.01324543
vt -0.1103198 0.005988287
vt -0.1108454 0.005137556
vt -0.09638299 -0.003797651
vt -0.09585739 -0.00294692
vt -0.111714 0.03940794
vt -0.1125277 0.0388267
vt -0.1026467 0.02499324
vt -0.1018329 0.02557448
vt -0.02606165 0.1137562
vt -0.02699599 0.1141125
vt -0.03305426 0.09822867
vt -0.03211991 0.0978723
vt 0.05233416 0.09295596
vt 0.05174596 0.09376468
vt 0.03799777 0.08376532
vt 0.03858596 0.0829566
vt -0.0693693 -0.01309427
vt -0.06843368 -0.01353745
vt -0.06740181 -0.01345346
vt -0.0665502 -0.01286478
vt -0.066107 -0.01192916
vt -0.066191 -0.0108973
vt -0.06677968 -0.01004568
vt -0.0677153 -0.009602491
vt -0.06874716 -0.009686489
vt -0.06959878 -0.01027516
vt -0.07004197 -0.01121078
vt -0.06995797 -0.01224264
vt 0.08658222 0.03167212
vt 0.08615863 0.03261677
vt 0.08544109 0.03172772
vt 0.1025928 0.02004947
vt 0.1020195 0.02091153
vt 0.1009197 0.02060246
vt 0.1018824 0.0191547
vt 0.1036069 0.01945572
vt 0.1028449 0.02015648
vt 0.1025365 0.01905641
vt 0.07602883 0.06485985
vt 0.07499854 0.06496131
vt 0.074542 0.063914
vt 0.07627229 0.06374361
vt 0.007336637 0.09112339
vt 0.006478745 0.09054388
vt 0.00747779 0.08998965
vt -0.02042714 0.05429267
vt -0.02107267 0.05348329
vt -0.02044216 0.05253055
vt -0.01935804 0.05388983
vt -0.06177031 0.02351695
vt -0.06221777 0.02258337
vt -0.0610756 0.02260996
vt -0.06107526 -0.0227967
vt -0.06136694 -0.02379004
vt -0.06042305 -0.02443374
vt -0.0599332 -0.02276549
vt -0.09403208 -0.01983868
vt -0.09452304 -0.02075013
vt -0.09338088 -0.02077741
vt -0.09961973 -0.02492379
vt -0.1000997 -0.02584107
vt -0.09929968 -0.02665665
vt -0.09849355 -0.02511616
vt 0.03997941 0.09493498
vt 0.03939753 0.09579126
vt 0.03884608 0.09479067
vt 0.08870377 0.05226948
vt 0.08844738 0.05327251
vt 0.08730714 0.05334404
vt 0.08773772 0.05165954
vt 0.08875956 0.0006153283
vt 0.08795617 0.002157259
vt 0.08174825 -0.001077219
vt 0.08255164 -0.002619148
vt 0.08206122 0.0660243
vt 0.08034781 0.06631953
vt 0.07915914 0.0594212
vt 0.08087255 0.05912596
vt -0.05362879 0.06533452
vt -0.05449254 0.06382558
vt -0.04841742 0.06034808
vt -0.04755368 0.06185703
vt -0.08795617 0.002157249
vt -0.08875956 0.0006153197
vt -0.08255164 -0.002619158
vt -0.08174826 -0.001077229
vt -0.08034787 0.06631947
vt -0.08206128 0.06602424
vt -0.0808726 0.0591259
vt -0.07915919 0.05942114
vt 0.05449254 0.06382559
vt 0.0536288 0.06533454
vt 0.04755368 0.06185704
vt 0.04841743 0.06034809
vt 0.0698074 -0.01171103
vt 0.06906309 -0.01013973
vt 0.06733017 -0.009998662
vt 0.06634153 -0.0114289
vt 0.06708582 -0.0130002
vt 0.06881876 -0.01314126
vt 0.09371273 0.03691159
vt 0.09315994 0.03808168
vt 0.08773489 0.03551873
vt 0.08828767 0.03434864
vt 0.1077238 0.01074688
vt 0.1071258 0.01189454
vt 0.1018048 0.009122124
vt 0.1024027 0.007974464
vt 0.1177296 0.01540383
vt 0.1169043 0.01640054
vt 0.1122831 0.01257373
vt 0.1131084 0.01157702
vt 0.08549298 0.08724985
vt 0.08421768 0.08746959
vt 0.08319884 0.08155672
vt 0.08447414 0.08133698
vt -0.02527054 0.1128507
vt -0.02622807 0.1119801
vt -0.02219191 0.1075406
vt -0.02123438 0.1084111
vt -0.07239836 0.07582235
vt -0.07304125 0.07469924
vt -0.067834 0.07171853
vt -0.06719112 0.07284164
vt -0.09316 0.0380817
vt -0.09371278 0.03691161
vt -0.08828773 0.03434866
vt -0.08773494 0.03551874
vt -0.1071258 0.01189454
vt -0.1077238 0.01074688
vt -0.1024027 0.00797447
vt -0.1018048 0.00912213
vt -0.1169043 0.01640053
vt -0.1177296 0.01540382
vt -0.1131084 0.011577
vt -0.1122831 0.01257372
vt -0.08421767 0.0874696
vt -0.08549297 0.08724986
vt -0.08447413 0.08133699
vt -0.08319883 0.08155674
vt 0.02622764 0.1119803
vt 0.0252701 0.1128508
vt 0.02123396 0.1084113
vt 0.0221915 0.1075407
vt 0.0730414 0.07469891
vt 0.07239852 0.07582202
vt 0.06719127 0.07284132
vt 0.06783415 0.0717182
vt 0.01086553 0.11025
vt 0.01190279 0.1094762
vt 0.01247949 0.1103023
vt 0.01149307 0.1110382
vt 0.07042884 -0.01241081
vt 0.07053384 -0.01112098
vt 0.06997986 -0.009951462
vt 0.06891533 -0.009215618
vt 0.06762551 -0.009110621
vt 0.06645598 -0.009664607
vt 0.06572013 -0.01072913
vt 0.06561514 -0.01201896
vt 0.06616913 -0.01318848
vt 0.06723364 -0.01392433
vt 0.06852348 -0.01402933
vt 0.06969301 -0.01347534
vt -0.08235732 0.08833291
vt -0.0810755 0.08851077
vt -0.08124531 0.08950381
vt -0.0824643 0.08933468
vt -0.1176097 0.02764158
vt -0.1166981 0.02856013
vt -0.1174352 0.02924693
vt -0.1183021 0.02837339
vt -0.1121247 0.01787182
vt -0.1114812 0.01899461
vt -0.1123706 0.01946778
vt -0.1129826 0.01840002
vt -0.1005522 0.03888762
vt -0.1000118 0.04006348
vt -0.10094 0.04045517
vt -0.101454 0.03933694
vt -0.08357601 0.07247012
vt -0.08300921 0.07363348
vt -0.08392835 0.07404602
vt -0.08446737 0.07293967
vt -0.04352794 0.1099303
vt -0.04269315 0.1109192
vt -0.04348306 0.1115445
vt -0.04427693 0.1106041
vt 0.08899115 0.08227447
vt 0.09025191 0.0819826
vt 0.09044813 0.08297078
vt 0.08924916 0.08324834
vt 0.1143153 0.0006294817
vt 0.1150224 -0.0004543876
vt 0.1158484 0.0001223429
vt 0.1151761 0.001153087
vt 0.1006451 0.003569262
vt 0.1011876 0.002394367
vt 0.1020885 0.002845291
vt 0.1015726 0.003962606
vt 0.08478673 0.03464482
vt 0.08534551 0.03347758
vt 0.08624008 0.03394098
vt 0.08570868 0.03505102
vt 0.06103052 0.07523255
vt 0.06173555 0.07414737
vt 0.06256267 0.07472257
vt 0.0618922 0.07575455
vt -0.06961368 -0.01338196
vt -0.06850147 -0.01390879
vt -0.06727485 -0.01380894
vt -0.0662625 -0.01310916
vt -0.06573568 -0.01199696
vt -0.06583552 -0.01077034
vt -0.0665353 -0.009757987
vt -0.0676475 -0.009231154
vt -0.06887412 -0.009331005
vt -0.06988647 -0.01003078
vt -0.07041331 -0.01114299
vt -0.07031345 -0.0123696
o group525775232
g mesh525775232
usemtl mat21
f 4/4/1 3/3/1 2/2/1 1/1/1
f 3/8/2 6/7/2 5/6/2 2/5/2
f 6/12/3 8/11/3 7/10/3 5/9/3
f 8/16/4 10/15/4 9/14/4 7/13/4
f 10/20/5 12/19/5 11/18/5 9/17/5
f 12/24/6 14/23/6 13/22/6 11/21/6
f 14/28/7 16/27/7 15/26/7 13/25/7
f 16/32/8 18/31/8 17/30/8 15/29/8
f 18/36/9 20/35/9 19/34/9 17/33/9
f 20/40/10 22/39/10 21/38/10 19/37/10
f 22/44/11 24/43/11 23/42/11 21/41/11
f 24/48/12 4/47/12 1/46/12 23/45/12
f 1/60/13 2/59/13 5/58/13 7/57/13 9/56/13 11/55/13 13/54/13 15/53/13 17/52/13 19/51/13 21/50/13 23/49/13
f 25/63/14 3/62/14 4/61/14
f 25/67/15 26/66/15 6/65/15 3/64/15
f 26/70/16 8/69/16 6/68/16
f 26/74/17 27/73/17 10/72/17 8/71/17
f 27/77/18 12/76/18 10/75/18
f 27/81/19 28/80/19 14/79/19 12/78/19
f 28/84/20 16/83/20 14/82/20
f 28/88/21 29/87/21 18/86/21 16/85/21
f 29/91/22 20/90/22 18/89/22
f 29/95/23 30/94/23 22/93/23 20/92/23
f 30/98/24 24/97/24 22/96/24
f 30/102/25 25/101/25 4/100/25 24/99/25
f 32/106/26 31/105/26 26/104/26 25/103/26
f 31/110/27 33/109/27 27/108/27 26/107/27
f 33/114/28 34/113/28 28/112/28 27/111/28
f 34/118/29 35/117/29 29/116/29 28/115/29
f 35/122/30 36/121/30 30/120/30 29/119/30
f 36/126/31 32/125/31 25/124/31 30/123/31
f 36/132/32 35/131/32 34/130/32 33/129/32 31/128/32 32/127/32
o group1791879740
g mesh1791879740
usemtl mat21
f 40/136/33 39/135/33 38/134/33 37/133/33
f 39/140/34 42/139/34 41/138/34 38/137/34
f 42/144/35 44/143/35 43/142/35 41/141/35
f 44/148/36 46/147/36 45/146/36 43/145/36
f 46/152/37 48/151/37 47/150/37 45/149/37
f 48/156/38 50/155/38 49/154/38 47/153/38
f 50/160/39 52/159/39 51/158/39 49/157/39
f 52/164/40 54/163/40 53/162/40 51/161/40
f 54/168/41 56/167/41 55/166/41 53/165/41
f 56/172/42 58/171/42 57/170/42 55/169/42
f 58/176/43 60/175/43 59/174/43 57/173/43
f 60/180/44 40/179/44 37/178/44 59/177/44
f 62/184/45 61/183/45 57/182/45 59/181/45
f 60/196/46 58/195/46 56/194/46 54/193/46 52/192/46 50/191/46 48/190/46 46/189/46 44/188/46 42/187/46 39/186/46 40/185/46
f 61/200/47 63/199/47 55/198/47 57/197/47
f 63/204/48 64/203/48 53/202/48 55/201/48
f 64/208/49 65/207/49 51/206/49 53/205/49
f 65/212/50 66/211/50 49/210/50 51/209/50
f 66/216/51 67/215/51 47/214/51 49/213/51
f 67/220/52 68/219/52 45/218/52 47/217/52
f 68/224/53 69/223/53 43/222/53 45/221/53
f 69/228/54 70/227/54 41/226/54 43/225/54
f 70/232/55 71/231/55 38/230/55 41/229/55
f 71/236/56 72/235/56 37/234/56 38/233/56
f 72/240/57 62/239/57 59/238/57 37/237/57
f 72/252/58 71/251/58 70/250/58 69/249/58 68/248/58 67/247/58 66/246/58 65/245/58 64/244/58 63/243/58 61/242/58 62/241/58
