mtllib materials.mtl
v 0 0.02869558 0.11
v 0.05499999 0.02869558 0.09526277
v 0.05499999 -0.04782617 0.09526277
v 0 -0.04782617 0.11
v 0.09526279 0.02869558 0.05500001
v 0.09526279 -0.04782617 0.05500001
v 0.11 0.02869558 0
v 0.11 -0.04782617 0
v 0.09526278 0.02869558 -0.05500001
v 0.09526278 -0.04782617 -0.05500001
v 0.055 0.02869558 -0.09526277
v 0.055 -0.04782617 -0.09526277
v -9.778887E-09 0.02869558 -0.11
v -9.778887E-09 -0.04782617 -0.11
v -0.05500001 0.02869558 -0.09526277
v -0.05500001 -0.04782617 -0.09526277
v -0.09526279 0.02869558 -0.05500001
v -0.09526279 -0.04782617 -0.05500001
v -0.11 0.02869558 0
v -0.11 -0.04782617 0
v -0.09526279 0.02869558 0.05500001
v -0.09526279 -0.04782617 0.05500001
v -0.05499997 0.02869558 0.09526277
v -0.05499997 -0.04782617 0.09526283
v -0.08573652 0.04782617 0.04949999
v -0.04949996 0.04782617 0.08573651
v -0.099 0.04782617 0
v -0.08573651 0.04782617 -0.04949999
v -0.04950001 0.04782617 -0.08573651
v -7.916242E-09 0.04782617 -0.09899998
v 0.0495 0.04782617 -0.08573651
v 0.08573651 0.04782617 -0.04949999
v 0.09899996 0.04782617 0
v 0.0857365 0.04782617 0.04950005
v 0.04949998 0.04782617 0.08573651
v -7.450581E-09 0.04782617 0.09899998
vn 0.2588191 -9.668079E-08 0.9659259
vn 0.7071068 -1.281796E-07 0.7071069
vn 0.9659259 5.807822E-08 0.2588189
vn 0.9659259 -6.283121E-08 -0.258819
vn 0.7071069 -5.814047E-08 -0.7071067
vn 0.258819 -1.79416E-07 -0.9659259
vn -0.2588191 -2.635448E-07 -0.9659258
vn -0.707107 -1.737508E-07 -0.7071066
vn -0.9659259 8.892257E-08 -0.2588189
vn -0.9659259 -2.994898E-08 0.2588189
vn -0.7071066 5.755985E-08 0.707107
vn -0.2588191 -1.82024E-07 0.9659258
vn -0.6181619 0.485542 0.6181625
vn 0 -1 0
vn -0.8444255 0.4855417 0.226263
vn -0.8444254 0.4855418 -0.2262631
vn -0.6181625 0.485542 -0.618162
vn -0.226263 0.4855419 -0.8444253
vn 0.226263 0.4855419 -0.8444253
vn 0.6181623 0.4855419 -0.6181622
vn 0.8444251 0.4855424 -0.2262628
vn 0.8444252 0.4855422 0.2262627
vn 0.6181622 0.4855415 0.6181626
vn 0.226263 0.485542 0.8444253
vn -0.2262632 0.4855419 0.8444253
vn 0 1 0
vt 0.1006761 0.02369888
vt 0.09824387 0.02884729
vt 0.09132496 0.02557859
vt 0.0937572 0.02043019
vt 0.1142197 -0.0003092089
vt 0.1115887 0.004740496
vt 0.1048024 0.001204664
vt 0.1074334 -0.003845041
vt 0.1232387 0.0097737
vt 0.119607 0.01415924
vt 0.1137133 0.009278661
vt 0.117345 0.004893126
vt 0.08696326 0.08765826
vt 0.08135193 0.08862515
vt 0.08005254 0.08108409
vt 0.08566387 0.08011721
vt -0.02931329 0.1100565
vt -0.03352643 0.1062262
vt -0.02837887 0.1005642
vt -0.02416574 0.1043945
vt -0.07754818 0.06813844
vt -0.08037688 0.06319673
vt -0.07373576 0.05939525
vt -0.07090705 0.06433694
vt -0.09824385 0.02884727
vt -0.1006761 0.02369887
vt -0.09375718 0.02043017
vt -0.09132494 0.02557857
vt -0.1115887 0.004740469
vt -0.1142197 -0.0003092345
vt -0.1074334 -0.003845066
vt -0.1048024 0.001204638
vt -0.119607 0.01415926
vt -0.1232387 0.009773728
vt -0.117345 0.004893153
vt -0.1137133 0.009278688
vt -0.08135195 0.08862513
vt -0.08696328 0.08765824
vt -0.08566389 0.0801172
vt -0.08005256 0.08108408
vt 0.03352649 0.1062262
vt 0.02931335 0.1100565
vt 0.02416579 0.1043945
vt 0.02837893 0.1005642
vt 0.08037689 0.06319676
vt 0.07754819 0.06813844
vt 0.07090707 0.06433696
vt 0.07373577 0.05939527
vt -0.02027566 0.07613964
vt -0.01518964 0.07357951
vt -0.01446003 0.07566216
vt -0.01903745 0.07796629
vt 0.0765838 -0.02788228
vt 0.07704578 -0.02220704
vt 0.07460825 -0.01706114
vt 0.06992434 -0.01382343
vt 0.06424909 -0.01336144
vt 0.05910319 -0.01579897
vt 0.05586548 -0.02048289
vt 0.05540349 -0.02615813
vt 0.05784102 -0.03130403
vt 0.06252494 -0.03454175
vt 0.06820019 -0.03500373
vt 0.07334609 -0.0325662
vt -0.07721908 0.06748369
vt -0.07154828 0.06799743
vt -0.07202926 0.07015114
vt -0.07713298 0.06968877
vt -0.1109495 0.03444376
vt -0.1062872 0.03771246
vt -0.1077765 0.03934085
vt -0.1119726 0.03639901
vt -0.1185005 0.01691079
vt -0.1152811 0.02160732
vt -0.117247 0.02260976
vt -0.1201445 0.01838288
vt -0.1164715 0.02046717
vt -0.1144793 0.02580131
vt -0.116629 0.02630024
vt -0.1184219 0.02149951
vt -0.1124225 0.03364374
vt -0.1114967 0.03926199
vt -0.1137022 0.03933688
vt -0.1145354 0.03428046
vt -0.1103839 0.03974073
vt -0.1107445 0.04542332
vt -0.1129104 0.04500062
vt -0.1125859 0.03988629
vt 0.02563322 -0.1100671
vt 0.02184506 -0.1143182
vt 0.02366824 -0.1155615
vt 0.02707758 -0.1117355
vt 0.07603353 -0.06375952
vt 0.07615601 -0.06945223
vt 0.07833768 -0.06912053
vt 0.07822746 -0.06399709
vt 0.06820295 -0.03316722
vt 0.06945547 -0.03872177
vt 0.07152756 -0.03796268
vt 0.0704003 -0.03296359
vt 0.05234525 0.006254448
vt 0.05469277 0.001066868
vt 0.05656908 0.002228446
vt 0.0544563 0.006897266
vt 0.02524926 0.04797443
vt 0.02890146 0.04360598
vt 0.03039772 0.04522801
vt 0.02711075 0.04915961
vt -0.07263394 -0.03172784
vt -0.06800263 -0.03392162
vt -0.0628949 -0.03350583
vt -0.05867938 -0.03059189
vt -0.0564856 -0.02596058
vt -0.0569014 -0.02085286
vt -0.05981534 -0.01663733
vt -0.06444664 -0.01444356
vt -0.06955437 -0.01485934
vt -0.0737699 -0.01777329
vt -0.07596367 -0.0224046
vt -0.07554788 -0.02751232
o group300876960
g mesh300876960
usemtl mat8
f 4/4/1 3/3/1 2/2/1 1/1/1
f 3/8/2 6/7/2 5/6/2 2/5/2
f 6/12/3 8/11/3 7/10/3 5/9/3
f 8/16/4 10/15/4 9/14/4 7/13/4
f 10/20/5 12/19/5 11/18/5 9/17/5
f 12/24/6 14/23/6 13/22/6 11/21/6
f 14/28/7 16/27/7 15/26/7 13/25/7
f 16/32/8 18/31/8 17/30/8 15/29/8
f 18/36/9 20/35/9 19/34/9 17/33/9
f 20/40/10 22/39/10 21/38/10 19/37/10
f 22/44/11 24/43/11 23/42/11 21/41/11
f 24/48/12 4/47/12 1/46/12 23/45/12
f 26/52/13 25/51/13 21/50/13 23/49/13
f 24/64/14 22/63/14 20/62/14 18/61/14 16/60/14 14/59/14 12/58/14 10/57/14 8/56/14 6/55/14 3/54/14 4/53/14
f 25/68/15 27/67/15 19/66/15 21/65/15
f 27/72/16 28/71/16 17/70/16 19/69/16
f 28/76/17 29/75/17 15/74/17 17/73/17
f 29/80/18 30/79/18 13/78/18 15/77/18
f 30/84/19 31/83/19 11/82/19 13/81/19
f 31/88/20 32/87/20 9/86/20 11/85/20
f 32/92/21 33/91/21 7/90/21 9/89/21
f 33/96/22 34/95/22 5/94/22 7/93/22
f 34/100/23 35/99/23 2/98/23 5/97/23
f 35/104/24 36/103/24 1/102/24 2/101/24
f 36/108/25 26/107/25 23/106/25 1/105/25
f 36/120/26 35/119/26 34/118/26 33/117/26 32/116/26 31/115/26 30/114/26 29/113/26 28/112/26 27/111/26 25/110/26 26/109/26
