{
	"asset": {
		"generator": "Blocks",
		"version": "105",
		"copyright": "Unknown"
	},
	"buffers": {
		"model": {
			"byteLength": 10416,
			"type": "arraybuffer",
			"uri": "model.bin"
		}
	},
	"accessors": {
		"accessor_position_m0-PolyGlass24_-85238": {
			"bufferView": "vec3BufferView",
			"byteOffset": 0,
			"byteStride": 12,
			"componentType": 5126,
			"count": 72,
			"max": [ 0.1000061, 1.024796, -0.610001 ],
			"min": [ -0.08999386, 1.000013, -0.8000011 ],
			"type": "VEC3"
		 },
		"accessor_normal_m0-PolyGlass24_-85238": {
			"bufferView": "vec3BufferView",
			"byteOffset": 864,
			"byteStride": 12,
			"componentType": 5126,
			"count": 72,
			"max": [ 0.9659259, 1, 0.9659259 ],
			"min": [ -0.965926, -1, -0.9659259 ],
			"type": "VEC3"
		 },
		"accessor_color_m0-PolyGlass24_-85238": {
			"bufferView": "vec4BufferView",
			"byteOffset": 0,
			"byteStride": 16,
			"componentType": 5126,
			"count": 72,
			"max": [ 0.8392157, 0.8392157, 0.8392157, 0.2509804 ],
			"min": [ 0.8392157, 0.8392157, 0.8392157, 0.2509804 ],
			"type": "VEC4"
		 },
		"accessor_indices_0_m0-PolyGlass24_-85238": {
			"bufferView": "ushortBufferView",
			"byteOffset": 0,
			"byteStride": 0,
			"componentType": 5123,
			"count": 132,
			"max": [ 71 ],
			"min": [ 0 ],
			"type": "SCALAR"
		 },
		"accessor_position_m1-PolyPaper3_-85418": {
			"bufferView": "vec3BufferView",
			"byteOffset": 1728,
			"byteStride": 12,
			"componentType": 5126,
			"count": 168,
			"max": [ 0.1149878, 1.030634, -0.5949892 ],
			"min": [ -0.1050121, 0.9349819, -0.8149892 ],
			"type": "VEC3"
		 },
		"accessor_normal_m1-PolyPaper3_-85418": {
			"bufferView": "vec3BufferView",
			"byteOffset": 3744,
			"byteStride": 12,
			"componentType": 5126,
			"count": 168,
			"max": [ 0.9659259, 1, 0.9659259 ],
			"min": [ -0.9659259, -1, -0.9659262 ],
			"type": "VEC3"
		 },
		"accessor_color_m1-PolyPaper3_-85418": {
			"bufferView": "vec4BufferView",
			"byteOffset": 1152,
			"byteStride": 16,
			"componentType": 5126,
			"count": 168,
			"max": [ 0.5019608, 0.8705882, 0.9176471, 1 ],
			"min": [ 0.5019608, 0.8705882, 0.9176471, 1 ],
			"type": "VEC4"
		 },
		"accessor_indices_0_m1-PolyPaper3_-85418": {
			"bufferView": "ushortBufferView",
			"byteOffset": 264,
			"byteStride": 0,
			"componentType": 5123,
			"count": 276,
			"max": [ 167 ],
			"min": [ 0 ],
			"type": "SCALAR"
		 }
	},
	"bufferViews": {
		"ushortBufferView": {
			"buffer": "model",
			"byteLength": 816,
			"byteOffset": 0,
			"target": 34963
		},
		"vec3BufferView": {
			"buffer": "model",
			"byteLength": 5760,
			"byteOffset": 816,
			"target": 34962
		},
		"vec4BufferView": {
			"buffer": "model",
			"byteLength": 3840,
			"byteOffset": 6576,
			"target": 34962
		}
	},
	"meshes": {
		"mesh_m0-PolyGlass24_-85238": {
			"name": "mesh_m0-PolyGlass24_-85238",
			"primitives": [
				{
					"attributes": {
						"POSITION": "accessor_position_m0-PolyGlass24_-85238",
						"NORMAL": "accessor_normal_m0-PolyGlass24_-85238",
						"COLOR": "accessor_color_m0-PolyGlass24_-85238"
					},
					"indices": "accessor_indices_0_m0-PolyGlass24_-85238",
					"material": "material_mat24",
					"mode": 4
				}
			]
		},
		"mesh_m1-PolyPaper3_-85418": {
			"name": "mesh_m1-PolyPaper3_-85418",
			"primitives": [
				{
					"attributes": {
						"POSITION": "accessor_position_m1-PolyPaper3_-85418",
						"NORMAL": "accessor_normal_m1-PolyPaper3_-85418",
						"COLOR": "accessor_color_m1-PolyPaper3_-85418"
					},
					"indices": "accessor_indices_0_m1-PolyPaper3_-85418",
					"material": "material_mat3",
					"mode": 4
				}
			]
		}
	},
	"shaders": {
		"vertex_mat24": {
			"type": 35633,
			"uri": "https://vr.google.com/shaders/w/glassVS.glsl"
		},
		"fragment_mat24": {
			"type": 35632,
			"uri": "https://vr.google.com/shaders/w/glassFS.glsl"
		},
		"vertex_mat3": {
			"type": 35633,
			"uri": "https://vr.google.com/shaders/w/vs.glsl"
		},
		"fragment_mat3": {
			"type": 35632,
			"uri": "https://vr.google.com/shaders/w/fs.glsl"
		}
	},
	"programs": {
		"program_mat24": {
			"attributes": [
				"a_position",
				"a_normal",
				"a_color"				
			],
			"vertexShader": "vertex_mat24",
			"fragmentShader": "fragment_mat24"
		},
		"program_mat3": {
			"attributes": [
				"a_position",
				"a_normal",
				"a_color"				
			],
			"vertexShader": "vertex_mat3",
			"fragmentShader": "fragment_mat3"
		}
	},
	"techniques": {
		"technique_mat24": {
			"program": "program_mat24",
			"extras": {"gvrss" : "https://vr.google.com/shaders/w/gvrss/glass.json"},
			"parameters": {
				"position": {
					"type": 35665,
					"semantic": "POSITION"
				},
				"normal": {
					"type": 35665,
					"semantic": "NORMAL"
				},
				"color": {
					"type": 35666,
					"semantic": "COLOR"
				},
				"modelViewMatrix": {
					"type": 35676,
					"semantic": "MODELVIEW"
				},
				"projectionMatrix": {
					"type": 35676,
					"semantic": "PROJECTION"
				},
				"normalMatrix": {
					"type": 35675,
					"semantic": "MODELVIEWINVERSETRANSPOSE"
				},
				"color": {
					"type": 35666
				},
				"roughness": {
					"type": 5126
				},
				"metallic": {
					"type": 5126
				},
				"light0Pos": {
					"type": 35666
				},
				"light0Color": {
					"type": 35666
				},
				"light1Pos": {
					"type": 35666
				},
				"light1Color": {
					"type": 35666
				}				
			},
			"attributes": {
				"a_position": "position",
				"a_normal": "normal",
				"a_color": "color"				
			},
			"uniforms": {
				"u_modelViewMatrix": "modelViewMatrix",
				"u_projectionMatrix": "projectionMatrix",
				"u_normalMatrix": "normalMatrix",
				"u_color": "color",
				"u_roughness": "roughness",
				"u_metallic": "metallic",
				"u_light0Pos": "light0Pos",
				"u_light0Color": "light0Color",
				"u_light1Pos": "light1Pos",
				"u_light1Color": "light1Color"				
			},
			"states": {
				"enable": [
					2929,
					3042
				],
				"functions": {
					"blendFuncSeparate": [775, 774, 773, 772],
					"depthMask": [true]
				}
			}
		},
		"technique_mat3": {
			"program": "program_mat3",
			"extras": {"gvrss" : "https://vr.google.com/shaders/w/gvrss/paper.json"},
			"parameters": {
				"position": {
					"type": 35665,
					"semantic": "POSITION"
				},
				"normal": {
					"type": 35665,
					"semantic": "NORMAL"
				},
				"color": {
					"type": 35666,
					"semantic": "COLOR"
				},
				"modelViewMatrix": {
					"type": 35676,
					"semantic": "MODELVIEW"
				},
				"projectionMatrix": {
					"type": 35676,
					"semantic": "PROJECTION"
				},
				"normalMatrix": {
					"type": 35675,
					"semantic": "MODELVIEWINVERSETRANSPOSE"
				},
				"color": {
					"type": 35666
				},
				"roughness": {
					"type": 5126
				},
				"metallic": {
					"type": 5126
				},
				"light0Pos": {
					"type": 35666
				},
				"light0Color": {
					"type": 35666
				},
				"light1Pos": {
					"type": 35666
				},
				"light1Color": {
					"type": 35666
				}				
			},
			"attributes": {
				"a_position": "position",
				"a_normal": "normal",
				"a_color": "color"				
			},
			"uniforms": {
				"u_modelViewMatrix": "modelViewMatrix",
				"u_projectionMatrix": "projectionMatrix",
				"u_normalMatrix": "normalMatrix",
				"u_color": "color",
				"u_roughness": "roughness",
				"u_metallic": "metallic",
				"u_light0Pos": "light0Pos",
				"u_light0Color": "light0Color",
				"u_light1Pos": "light1Pos",
				"u_light1Color": "light1Color"				
			},
			"states": {
				"enable": [
					2929,
					2884
				],
				"functions": {
					"cullFace": [1029]
				}
			}
		}
	},
	"materials": {
		"material_mat24": {
			"technique": "technique_mat24",
			"values": {
				"color": [0.8392157, 0.8392157, 0.8392157, 0.2509804],
				"roughness": 0,
				"metallic": 0,
				"light0Pos": [-0.02, 4.11, -0.54, 0],
				"light0Color": [0.8, 0.8, 0.8, 0],
				"light1Pos": [0.02, -4.11, 0.54, 0],
				"light1Color": [0.64, 0.5647059, 0.5647059, 0]				
			},
			"name": "material_mat24"
		},
		"material_mat3": {
			"technique": "technique_mat3",
			"values": {
				"color": [0.5019608, 0.8705882, 0.9176471, 1],
				"roughness": 0.72,
				"metallic": 0,
				"light0Pos": [-0.02, 4.11, -0.54, 0],
				"light0Color": [0.8, 0.8, 0.8, 0],
				"light1Pos": [0.02, -4.11, 0.54, 0],
				"light1Color": [0.64, 0.5647059, 0.5647059, 0]				
			},
			"name": "material_mat3"
		}
	},
	"nodes": {
		"node_MeshObject389840768-PolyGlass24": {
			"name": "node_MeshObject389840768-PolyGlass24",
			"meshes": [
				"mesh_m0-PolyGlass24_-85238"
			],
			"matrix": [1, 0, 0, 0, 0, 1, 0, 0, 0, 0, 1, 0, 0, 0, 0, 1]
		},
		"node_MeshObject763354048-PolyPaper3": {
			"name": "node_MeshObject763354048-PolyPaper3",
			"meshes": [
				"mesh_m1-PolyPaper3_-85418"
			],
			"matrix": [1, 0, 0, 0, 0, 1, 0, 0, 0, 0, 1, 0, 0, 0, 0, 1]
		}
	},
	"scene": "defaultScene",
	"scenes": {
		"defaultScene": {
			"nodes": [
				"node_MeshObject389840768-PolyGlass24",
				"node_MeshObject763354048-PolyPaper3"
			],
			"extras": {

			}
		}
	}
}