{
	"asset": {
		"generator": "Blocks",
		"version": "105",
		"copyright": "Unknown"
	},
	"buffers": {
		"model": {
			"byteLength": 22752,
			"type": "arraybuffer",
			"uri": "model.bin"
		}
	},
	"accessors": {
		"accessor_position_m0-PolyPaper15_-30626": {
			"bufferView": "vec3BufferView",
			"byteOffset": 0,
			"byteStride": 12,
			"componentType": 5126,
			"count": 528,
			"max": [ -0.5418659, 1.114984, -0.3687254 ],
			"min": [ -0.7650313, 0.1500336, -0.4912258 ],
			"type": "VEC3"
		 },
		"accessor_normal_m0-PolyPaper15_-30626": {
			"bufferView": "vec3BufferView",
			"byteOffset": 6336,
			"byteStride": 12,
			"componentType": 5126,
			"count": 528,
			"max": [ 0.9993768, 1, 1 ],
			"min": [ -1, -1, -1 ],
			"type": "VEC3"
		 },
		"accessor_color_m0-PolyPaper15_-30626": {
			"bufferView": "vec4BufferView",
			"byteOffset": 0,
			"byteStride": 16,
			"componentType": 5126,
			"count": 528,
			"max": [ 0.8117647, 0.8470588, 0.8627451, 1 ],
			"min": [ 0.4705882, 0.5647059, 0.6117647, 1 ],
			"type": "VEC4"
		 },
		"accessor_indices_0_m0-PolyPaper15_-30626": {
			"bufferView": "ushortBufferView",
			"byteOffset": 0,
			"byteStride": 0,
			"componentType": 5123,
			"count": 816,
			"max": [ 527 ],
			"min": [ 0 ],
			"type": "SCALAR"
		 }
	},
	"bufferViews": {
		"ushortBufferView": {
			"buffer": "model",
			"byteLength": 1632,
			"byteOffset": 0,
			"target": 34963
		},
		"vec3BufferView": {
			"buffer": "model",
			"byteLength": 12672,
			"byteOffset": 1632,
			"target": 34962
		},
		"vec4BufferView": {
			"buffer": "model",
			"byteLength": 8448,
			"byteOffset": 14304,
			"target": 34962
		}
	},
	"meshes": {
		"mesh_m0-PolyPaper15_-30626": {
			"name": "mesh_m0-PolyPaper15_-30626",
			"primitives": [
				{
					"attributes": {
						"POSITION": "accessor_position_m0-PolyPaper15_-30626",
						"NORMAL": "accessor_normal_m0-PolyPaper15_-30626",
						"COLOR": "accessor_color_m0-PolyPaper15_-30626"
					},
					"indices": "accessor_indices_0_m0-PolyPaper15_-30626",
					"material": "material_mat15",
					"mode": 4
				}
			]
		}
	},
	"shaders": {
		"vertex_mat15": {
			"type": 35633,
			"uri": "https://vr.google.com/shaders/w/vs.glsl"
		},
		"fragment_mat15": {
			"type": 35632,
			"uri": "https://vr.google.com/shaders/w/fs.glsl"
		}
	},
	"programs": {
		"program_mat15": {
			"attributes": [
				"a_position",
				"a_normal",
				"a_color"				
			],
			"vertexShader": "vertex_mat15",
			"fragmentShader": "fragment_mat15"
		}
	},
	"techniques": {
		"technique_mat15": {
			"program": "program_mat15",
			"extras": {"gvrss" : "https://vr.google.com/shaders/w/gvrss/paper.json"},
			"parameters": {
				"position": {
					"type": 35665,
					"semantic": "POSITION"
				},
				"normal": {
					"type": 35665,
					"semantic": "NORMAL"
				},
				"color": {
					"type": 35666,
					"semantic": "COLOR"
				},
				"modelViewMatrix": {
					"type": 35676,
					"semantic": "MODELVIEW"
				},
				"projectionMatrix": {
					"type": 35676,
					"semantic": "PROJECTION"
				},
				"normalMatrix": {
					"type": 35675,
					"semantic": "MODELVIEWINVERSETRANSPOSE"
				},
				"color": {
					"type": 35666
				},
				"roughness": {
					"type": 5126
				},
				"metallic": {
					"type": 5126
				},
				"light0Pos": {
					"type": 35666
				},
				"light0Color": {
					"type": 35666
				},
				"light1Pos": {
					"type": 35666
				},
				"light1Color": {
					"type": 35666
				}				
			},
			"attributes": {
				"a_position": "position",
				"a_normal": "normal",
				"a_color": "color"				
			},
			"uniforms": {
				"u_modelViewMatrix": "modelViewMatrix",
				"u_projectionMatrix": "projectionMatrix",
				"u_normalMatrix": "normalMatrix",
				"u_color": "color",
				"u_roughness": "roughness",
				"u_metallic": "metallic",
				"u_light0Pos": "light0Pos",
				"u_light0Color": "light0Color",
				"u_light1Pos": "light1Pos",
				"u_light1Color": "light1Color"				
			},
			"states": {
				"enable": [
					2929,
					2884
				],
				"functions": {
					"cullFace": [1029]
				}
			}
		}
	},
	"materials": {
		"material_mat15": {
			"technique": "technique_mat15",
			"values": {
				"color": [0.8117647, 0.8470588, 0.8627451, 1],
				"roughness": 0.72,
				"metallic": 0,
				"light0Pos": [-0.02, 4.11, -0.54, 0],
				"light0Color": [0.8, 0.8, 0.8, 0],
				"light1Pos": [0.02, -4.11, 0.54, 0],
				"light1Color": [0.64, 0.5647059, 0.5647059, 0]				
			},
			"name": "material_mat15"
		}
	},
	"nodes": {
		"node_MeshObject1777182848-PolyPaper15": {
			"name": "node_MeshObject1777182848-PolyPaper15",
			"meshes": [
				"mesh_m0-PolyPaper15_-30626"
			],
			"matrix": [1, 0, 0, 0, 0, 1, 0, 0, 0, 0, 1, 0, 0, 0, 0, 1]
		}
	},
	"scene": "defaultScene",
	"scenes": {
		"defaultScene": {
			"nodes": [
				"node_MeshObject1777182848-PolyPaper15"
			],
			"extras": {

			}
		}
	}
}