mtllib materials.mtl
v -0.375 -0.1981131 0.375
v -0.3749999 -0.1981131 -0.375
v -0.3749999 -0.01415074 -0.375
v -0.375 -0.01415074 0.375
v 0.375 -0.1981131 0.375
v 0.375 -0.01415074 0.375
v 0.375 -0.01415074 -0.375
v 0.375 -0.1981131 -0.3749999
v -0.3375 0.1981131 -0.3375001
v -0.3375 0.1981131 -0.1687501
v 0.3375 0.1981131 -0.3375
v 0.3375001 0.1981131 0.3374997
v 0.3375001 0.1981131 0.1687498
v -0.3375001 0.1981131 0.3374999
v -0.3375 0.1981131 0.1687499
v -0.351651 0.07075465 0
v -0.3445754 0.1344337 -0.08437502
v 0.3304245 0.1344337 -0.0843749
v 0.3233491 0.07075465 0
v 0.3375001 0.1981131 -0.1687499
v -0.3445754 0.1344337 0.0843749
v 0.3304245 0.1344337 0.0843749
vn -1 0 -8.742278E-08
vn 1 0 8.742278E-08
vn 0 -1 0
vn -0.9847505 0.1739728 -8.622514E-08
vn -8.742278E-08 0 1
vn 8.742278E-08 0 -1
vn 3.910975E-08 0.1739728 -0.9847504
vn 0.9847505 0.1739727 -1.177213E-07
vn -1.968062E-08 0.1739734 0.9847504
vn 0 1 0
vn -1.486591E-07 0.7981892 0.6024069
vn 0 1 0
vn -1.917019E-09 0.7981889 -0.6024073
vn -0.9847505 0.1739728 -8.622514E-08
vn -0.9847505 0.1739728 -8.622514E-08
vn -0.9847505 0.1739728 -8.622514E-08
vn -0.9847505 0.1739728 -8.622514E-08
vn 0.9847505 0.1739727 -1.177213E-07
vn 0.9847505 0.1739727 -1.177213E-07
vn 0.9847505 0.1739727 -1.177213E-07
vn 0.9847505 0.1739727 -1.177213E-07
vn -1.486591E-07 0.7981892 0.6024069
vn -1.917019E-09 0.7981889 -0.6024073
vt -0.1726277 -0.01639094
vt -0.1115977 0.02720193
vt -0.1222903 0.04217156
vt -0.1833203 -0.001421312
vt 0.1726277 -0.01639094
vt 0.1833203 -0.001421308
vt 0.1222903 0.04217156
vt 0.1115977 0.02720193
vt 0.1513514 -0.02219821
vt 0.1765766 0.04843244
vt 0.105946 0.07365767
vt 0.08072074 0.003027029
vt -0.1175991 0.06064848
vt -0.1310868 0.07787535
vt -0.1459602 0.06990365
vt 0.06439875 0.06574041
vt 0.08085284 0.07396745
vt 0.04731182 0.1410495
vt 0.03085773 0.1328224
vt -0.06439875 0.06574041
vt -0.03085773 0.1328224
vt -0.04731182 0.1410495
vt -0.08085284 0.07396745
vt -0.0954686 0.07373342
vt -0.06582745 0.1426276
vt -0.08710977 0.1477018
vt -0.1137868 0.08569703
vt 0.1636556 -0.05505295
vt 0.1772495 -0.03790969
vt 0.1660198 -0.02531368
vt 0.01702702 0.129504
vt 0.05339775 0.06391303
vt 0.07043013 0.07764557
vt 0.03769647 0.1366774
vt -0.1490811 -0.01740541
vt -0.1331892 -0.01172974
vt -0.1558919 0.05183786
vt -0.1717838 0.04616218
vt -0.03463389 0.01717737
vt -0.02587259 0.02313405
vt -0.06001145 0.08136453
vt -0.06877274 0.07540786
vt -0.1014054 -0.0003783823
vt -0.08551352 0.005297297
vt -0.1082162 0.06886487
vt -0.1241082 0.0631892
vt -0.1789761 0.03664238
vt -0.1684181 0.03576438
vt -0.1673291 0.1032556
vt -0.1778871 0.1041336
vt -0.1175991 0.06064848
vt -0.1459602 0.06990365
vt -0.1503764 0.06028229
vt -0.1547927 0.05066095
vt -0.1547927 0.05066095
vt -0.1652498 0.05231059
vt -0.175707 0.05396025
vt -0.1905804 0.04598856
vt -0.1547927 0.05066095
vt -0.1905804 0.04598856
vt -0.183703 0.02521871
vt -0.1547927 0.05066095
vt -0.183703 0.02521871
vt -0.1175991 0.06064848
vt 0.1636556 -0.05505295
vt 0.1660198 -0.02531368
vt 0.1558161 -0.02310677
vt 0.1456124 -0.02089985
vt 0.1456124 -0.02089985
vt 0.1445864 -0.01051077
vt 0.1435604 -0.0001216711
vt 0.1323307 0.01247435
vt 0.1456124 -0.02089985
vt 0.1323307 0.01247435
vt 0.1137459 0.0009293463
vt 0.1456124 -0.02089985
vt 0.1137459 0.0009293463
vt 0.1636556 -0.05505295
vt -0.02587259 0.02313405
vt -0.01711128 0.02909073
vt -0.05125014 0.08732121
vt -0.06001145 0.08136453
vt -0.1684181 0.03576438
vt -0.1578601 0.03488637
vt -0.1567711 0.1023776
vt -0.1673291 0.1032556
o group1239602663
g mesh1239602663
usemtl mat20
f 4/4/1 3/3/1 2/2/1 1/1/1
f 8/8/2 7/7/2 6/6/2 5/5/2
f 2/12/3 8/11/3 5/10/3 1/9/3
f 10/15/4 9/14/4 3/13/4
f 5/19/5 6/18/5 4/17/5 1/16/5
f 3/23/6 7/22/6 8/21/6 2/20/6
f 9/27/7 11/26/7 7/25/7 3/24/7
f 13/30/8 12/29/8 6/28/8
f 12/34/9 14/33/9 4/32/9 6/31/9
f 12/38/10 13/37/10 15/36/10 14/35/10
f 19/42/11 18/41/11 17/40/11 16/39/11
f 20/46/12 11/45/12 9/44/12 10/43/12
f 16/54/14 17/53/14 10/52/14 3/51/14
f 14/58/15 15/57/15 21/56/15 16/55/15
f 4/61/16 14/60/16 16/59/16
f 3/64/17 4/63/17 16/62/17
f 19/68/18 22/67/18 13/66/18 6/65/18
f 11/72/19 20/71/19 18/70/19 19/69/19
f 7/75/20 11/74/20 19/73/20
f 6/78/21 7/77/21 19/76/21
f 22/86/23 19/85/23 16/84/23 21/83/23
usemtl mat21
f 13/50/13 22/49/13 21/48/13 15/47/13
f 18/82/22 20/81/22 10/80/22 17/79/22
